<svg width="1540" height="877" viewBox="0 0 1540 877" fill="none" xmlns="http://www.w3.org/2000/svg">
<g clip-path="url(#clip0)">
<path d="M576.214 173.337C576.214 173.337 594.571 164.831 585.878 146.243L580.296 134.308C571.542 115.59 553.337 124.422 553.337 124.422L527.51 136.5L536.325 155.349L544.478 151.536L549.693 162.689L541.541 166.501L550.386 185.415L576.214 173.337ZM573.957 137.749C574.218 137.627 579.435 135.187 581.937 140.535L582.181 141.057C584.682 146.405 579.369 148.81 579.173 148.902L550.737 162.201L545.521 151.048L573.957 137.749Z" fill="#4A4A4A"/>
<path d="M620.881 153.4C632.099 148.154 637.621 135.318 634.788 122.971C634.325 120.962 633.667 119.045 632.752 117.088C631.867 115.197 630.818 113.462 629.603 111.884C621.978 101.699 608.525 97.5781 597.242 102.855C586.09 108.071 580.533 121.003 583.366 133.349C583.829 135.358 584.487 137.276 585.402 139.232C591.899 153.124 607.902 159.47 620.881 153.4ZM594.256 141.848C591.191 143.281 587.553 141.962 586.12 138.897C584.656 135.766 585.975 132.129 589.04 130.695L623.933 114.377C626.933 112.974 630.57 114.293 632.034 117.424C633.468 120.489 632.149 124.126 629.149 125.529L594.256 141.848Z" fill="#4A4A4A"/>
<path d="M685.35 122.296L676.504 103.382L651.395 115.125L646.179 103.973L658.245 98.33L649.43 79.4814L624.255 91.2551L633.07 110.104L645.135 104.461L650.351 115.613L638.286 121.256L647.131 140.17L685.35 122.296Z" fill="#4A4A4A"/>
<path d="M726.844 102.89L717.998 83.9766L692.888 95.7198L687.673 84.5672L699.738 78.9244L690.923 60.0758L665.748 71.8495L674.563 90.6981L686.629 85.0553L691.845 96.2079L679.779 101.851L688.625 120.764L726.844 102.89Z" fill="#4A4A4A"/>
<path d="M754.556 89.9298L745.711 71.016L735.276 75.8963L746.43 57.0877L750.93 54.9831L742.115 36.1345L716.419 48.1523L725.234 67.0008L729.147 65.1707L724.187 73.7698L717.081 70.8135L723.342 67.8854L714.527 49.0368L697.179 57.1503L705.994 75.9988L715.842 71.3931L731.167 77.8179L721.319 82.4237L730.164 101.337L754.556 89.9298Z" fill="#4A4A4A"/>
<path d="M573.146 238.801L564.3 219.887L554.061 224.676L551.926 220.11L573.709 209.923C577.753 208.032 578.929 204.938 579.467 202.858C579.943 200.648 579.533 199.091 578.893 197.722L577.368 194.461C573.402 185.982 564.357 183.297 555.226 187.568L529.791 199.463L538.606 218.312L547.802 214.011L553.017 225.164L543.756 229.495L552.602 248.409L573.146 238.801ZM551.407 219.002L548.845 213.523L576.042 200.804C576.042 200.804 578.655 199.423 578.183 202.664C577.725 205.422 575.995 207.502 573.191 208.814L551.407 219.002Z" fill="#4A4A4A"/>
<path d="M599.645 182.691L609.631 191.295L599.13 196.206L599.645 182.691ZM603.337 201.631L598.836 203.735L599.097 197.493L610.575 192.125L615.141 196.11L605.228 200.746L614.074 219.66L634.683 210.021L625.838 191.107L616.381 195.53L589.045 171.751L588.197 172.148L584.879 210.263L578.944 213.038L587.79 231.952L612.182 220.544L603.337 201.631Z" fill="#4A4A4A"/>
<path d="M637.946 208.495L663.055 196.752L654.21 177.838L639.405 184.762L637.27 180.197L651.422 173.578C652.17 173.308 653.271 173.111 654.423 173.367C656.09 173.7 657.639 174.804 658.876 176.769C659.216 177.325 659.926 178.504 660.235 178.995C663.179 183.42 666.001 187.585 670.583 189.734C673.416 191.033 676.474 191.113 679.409 189.74C684.496 187.361 686.683 181.33 684.334 176.309C681.955 171.221 675.925 169.034 670.838 171.413C665.881 173.731 663.533 179.758 665.82 184.649C664.162 182.802 662.672 180.637 661.217 178.376C660.878 177.82 660.168 176.642 659.859 176.15C658.404 173.89 656.602 172.586 654.614 172.244L654.357 172.205L659.705 169.704C663.749 167.813 664.925 164.72 665.463 162.64C665.939 160.43 665.834 159.525 665.194 158.156L663.364 154.243C659.398 145.764 650.353 143.079 641.222 147.349L615.134 159.55L623.949 178.399L633.145 174.098L638.361 185.25L629.1 189.582L637.946 208.495ZM636.751 179.088L634.189 173.61L662.038 160.585C662.038 160.585 664.651 159.204 664.179 162.445C663.721 165.203 661.991 167.284 659.187 168.596L636.751 179.088Z" fill="#4A4A4A"/>
<path d="M716.771 171.63L707.926 152.717L695.86 158.359L690.644 147.207L710.537 137.904L701.721 119.055L660.894 138.149L669.709 156.998L689.601 147.695L694.817 158.847L682.751 164.49L691.597 183.404L716.771 171.63Z" fill="#4A4A4A"/>
<path d="M750.953 156.598C762.171 151.352 767.693 138.516 764.86 126.169C764.397 124.16 763.739 122.243 762.824 120.286C761.939 118.395 760.889 116.66 759.674 115.082C752.05 104.897 738.597 100.776 727.314 106.053C716.161 111.269 710.605 124.201 713.438 136.547C713.901 138.556 714.559 140.474 715.474 142.43C721.971 156.322 737.974 162.668 750.953 156.598ZM724.328 145.046C721.262 146.479 717.625 145.16 716.191 142.095C714.727 138.964 716.047 135.327 719.112 133.893L754.005 117.575C757.005 116.172 760.642 117.491 762.106 120.622C763.54 123.687 762.221 127.324 759.22 128.727L724.328 145.046Z" fill="#4A4A4A"/>
<path d="M793.532 112.681L781.597 118.262L776.381 107.11L786.49 102.382L813.074 126.592L829.509 118.906L820.664 99.9919L808.728 105.574L803.513 94.4211L815.448 88.8392L806.633 69.9907L781.458 81.7644L790.273 100.613L802.469 94.9091L807.685 106.062L797.511 110.82L771.023 86.6447L754.326 94.4531L763.141 113.302L775.338 107.598L780.553 118.75L768.357 124.454L777.203 143.368L802.378 131.594L793.532 112.681Z" fill="#4A4A4A"/>
<path d="M704.999 448.71C704.999 448.71 723.356 440.204 714.663 421.616L709.081 409.681C700.327 390.963 682.123 399.795 682.123 399.795L656.296 411.873L665.111 430.722L673.263 426.909L678.479 438.062L670.326 441.875L679.172 460.788L704.999 448.71ZM702.742 413.122C703.003 413 708.221 410.56 710.722 415.908L710.966 416.43C713.467 421.778 708.154 424.183 707.958 424.275L679.522 437.574L674.307 426.421L702.742 413.122Z" fill="#4A4A4A"/>
<path d="M749.667 428.773C760.885 423.527 766.407 410.691 763.573 398.344C763.111 396.335 762.452 394.418 761.537 392.461C760.653 390.57 759.603 388.835 758.388 387.257C750.763 377.072 737.311 372.951 726.028 378.228C714.875 383.444 709.318 396.376 712.151 408.722C712.614 410.731 713.273 412.649 714.188 414.605C720.685 428.497 736.688 434.843 749.667 428.773ZM723.041 417.221C719.976 418.655 716.339 417.335 714.905 414.27C713.441 411.139 714.76 407.502 717.826 406.068L752.718 389.75C755.718 388.347 759.356 389.666 760.82 392.797C762.253 395.862 760.934 399.499 757.934 400.902L723.041 417.221Z" fill="#4A4A4A"/>
<path d="M814.135 397.669L805.29 378.755L780.18 390.498L774.964 379.346L787.03 373.703L778.215 354.854L753.04 366.628L761.855 385.477L773.921 379.834L779.137 390.987L767.071 396.629L775.917 415.543L814.135 397.669Z" fill="#4A4A4A"/>
<path d="M855.629 378.263L846.784 359.35L821.674 371.093L816.458 359.94L828.524 354.297L819.709 335.449L794.534 347.223L803.349 366.071L815.414 360.428L820.63 371.581L808.565 377.224L817.41 396.138L855.629 378.263Z" fill="#4A4A4A"/>
<path d="M883.342 365.303L874.496 346.389L864.061 351.269L875.216 332.461L879.716 330.356L870.901 311.508L845.204 323.525L854.019 342.374L857.932 340.544L852.972 349.143L845.867 346.187L852.128 343.258L843.313 324.41L825.964 332.523L834.779 351.372L844.627 346.766L859.952 353.191L850.104 357.797L858.95 376.71L883.342 365.303Z" fill="#4A4A4A"/>
<path d="M701.931 514.174L693.086 495.26L682.846 500.049L680.711 495.483L702.495 485.296C706.538 483.405 707.715 480.311 708.252 478.231C708.729 476.021 708.319 474.465 707.678 473.095L706.153 469.834C702.188 461.355 693.143 458.67 684.012 462.941L658.576 474.836L667.391 493.685L676.587 489.384L681.803 500.537L672.542 504.868L681.387 523.782L701.931 514.174ZM680.193 494.375L677.631 488.896L704.827 476.177C704.827 476.177 707.44 474.796 706.969 478.037C706.51 480.795 704.781 482.875 701.976 484.187L680.193 494.375Z" fill="#4A4A4A"/>
<path d="M728.431 458.064L738.416 466.668L727.916 471.579L728.431 458.064ZM732.122 477.004L727.622 479.108L727.882 472.866L739.361 467.498L743.927 471.483L734.013 476.119L742.859 495.033L763.468 485.394L754.623 466.48L745.166 470.903L717.83 447.124L716.982 447.521L713.665 485.636L707.73 488.411L716.575 507.325L740.968 495.917L732.122 477.004Z" fill="#4A4A4A"/>
<path d="M766.731 483.868L791.841 472.125L782.995 453.211L768.19 460.135L766.055 455.57L780.208 448.951C780.956 448.681 782.056 448.484 783.209 448.74C784.875 449.073 786.424 450.177 787.661 452.142C788.001 452.698 788.711 453.877 789.02 454.368C791.964 458.793 794.786 462.958 799.368 465.107C802.201 466.406 805.259 466.486 808.194 465.113C813.281 462.734 815.468 456.703 813.12 451.682C810.741 446.594 804.71 444.407 799.623 446.786C794.666 449.104 792.318 455.131 794.606 460.022C792.947 458.175 791.458 456.01 790.003 453.749C789.663 453.193 788.953 452.015 788.644 451.523C787.189 449.263 785.387 447.959 783.399 447.617L783.143 447.579L788.491 445.077C792.534 443.186 793.711 440.093 794.248 438.013C794.725 435.803 794.62 434.898 793.979 433.529L792.149 429.616C788.184 421.137 779.139 418.452 770.008 422.722L743.92 434.923L752.735 453.772L761.931 449.471L767.147 460.623L757.885 464.955L766.731 483.868ZM765.537 454.461L762.974 448.983L790.823 435.958C790.823 435.958 793.436 434.578 792.965 437.818C792.506 440.576 790.777 442.657 787.972 443.969L765.537 454.461Z" fill="#4A4A4A"/>
<path d="M845.557 447.003L836.711 428.09L824.646 433.732L819.43 422.58L839.322 413.277L830.507 394.428L789.679 413.522L798.494 432.371L818.386 423.068L823.602 434.221L811.536 439.863L820.382 458.777L845.557 447.003Z" fill="#4A4A4A"/>
<path d="M879.738 431.971C890.956 426.725 896.478 413.889 893.645 401.543C893.183 399.533 892.524 397.616 891.609 395.659C890.725 393.768 889.675 392.033 888.46 390.455C880.835 380.27 867.383 376.149 856.1 381.426C844.947 386.642 839.39 399.574 842.223 411.92C842.686 413.929 843.344 415.847 844.259 417.803C850.756 431.695 866.76 438.041 879.738 431.971ZM853.113 420.419C850.048 421.853 846.41 420.533 844.977 417.468C843.513 414.337 844.832 410.7 847.897 409.266L882.79 392.948C885.79 391.545 889.428 392.864 890.892 395.995C892.325 399.06 891.006 402.697 888.006 404.1L853.113 420.419Z" fill="#4A4A4A"/>
<path d="M922.318 388.054L910.382 393.635L905.167 382.483L915.276 377.755L941.859 401.965L958.295 394.279L949.449 375.365L937.514 380.947L932.298 369.794L944.233 364.212L935.418 345.364L910.243 357.137L919.058 375.986L931.255 370.282L936.47 381.435L926.296 386.193L899.808 362.018L883.112 369.826L891.927 388.675L904.123 382.971L909.339 394.124L897.143 399.827L905.988 418.741L931.163 406.967L922.318 388.054Z" fill="#4A4A4A"/>
<path d="M1047.4 288.575C1047.4 288.575 1065.76 280.069 1057.07 261.482L1051.49 249.546C1042.73 230.828 1024.53 239.66 1024.53 239.66L998.7 251.739L1007.52 270.587L1015.67 266.775L1020.88 277.927L1012.73 281.74L1021.58 300.654L1047.4 288.575ZM1045.15 252.988C1045.41 252.866 1050.63 250.426 1053.13 255.774L1053.37 256.295C1055.87 261.643 1050.56 264.049 1050.36 264.14L1021.93 277.439L1016.71 266.287L1045.15 252.988Z" fill="#4A4A4A"/>
<path d="M1092.07 268.639C1103.29 263.393 1108.81 250.556 1105.98 238.21C1105.52 236.201 1104.86 234.283 1103.94 232.327C1103.06 230.435 1102.01 228.701 1100.79 227.123C1093.17 216.938 1079.72 212.817 1068.43 218.093C1057.28 223.309 1051.72 236.241 1054.56 248.587C1055.02 250.597 1055.68 252.514 1056.59 254.471C1063.09 268.363 1079.09 274.709 1092.07 268.639ZM1065.45 257.086C1062.38 258.52 1058.74 257.201 1057.31 254.135C1055.85 251.005 1057.16 247.367 1060.23 245.934L1095.12 229.615C1098.12 228.212 1101.76 229.531 1103.22 232.662C1104.66 235.727 1103.34 239.365 1100.34 240.768L1065.45 257.086Z" fill="#4A4A4A"/>
<path d="M1156.54 237.535L1147.69 218.621L1122.58 230.364L1117.37 219.211L1129.43 213.568L1120.62 194.72L1095.44 206.494L1104.26 225.342L1116.33 219.699L1121.54 230.852L1109.48 236.495L1118.32 255.409L1156.54 237.535Z" fill="#4A4A4A"/>
<path d="M1198.03 218.129L1189.19 199.215L1164.08 210.958L1158.86 199.806L1170.93 194.163L1162.11 175.314L1136.94 187.088L1145.75 205.937L1157.82 200.294L1163.03 211.446L1150.97 217.089L1159.81 236.003L1198.03 218.129Z" fill="#4A4A4A"/>
<path d="M1225.75 205.168L1216.9 186.254L1206.47 191.135L1217.62 172.326L1222.12 170.222L1213.31 151.373L1187.61 163.391L1196.42 182.239L1200.34 180.409L1195.38 189.008L1188.27 186.052L1194.53 183.124L1185.72 164.275L1168.37 172.389L1177.18 191.237L1187.03 186.632L1202.36 193.056L1192.51 197.662L1201.35 216.576L1225.75 205.168Z" fill="#4A4A4A"/>
<path d="M1044.34 354.039L1035.49 335.125L1025.25 339.914L1023.12 335.349L1044.9 325.161C1048.94 323.27 1050.12 320.176 1050.66 318.097C1051.13 315.887 1050.72 314.33 1050.08 312.96L1048.56 309.699C1044.59 301.221 1035.55 298.536 1026.42 302.806L1000.98 314.702L1009.8 333.55L1018.99 329.25L1024.21 340.402L1014.95 344.733L1023.79 363.647L1044.34 354.039ZM1022.6 334.24L1020.04 328.762L1047.23 316.042C1047.23 316.042 1049.84 314.661 1049.37 317.902C1048.91 320.66 1047.19 322.741 1044.38 324.052L1022.6 334.24Z" fill="#4A4A4A"/>
<path d="M1070.84 297.929L1080.82 306.533L1070.32 311.444L1070.84 297.929ZM1074.53 316.869L1070.03 318.974L1070.29 312.732L1081.77 307.363L1086.33 311.348L1076.42 315.985L1085.26 334.898L1105.87 325.26L1097.03 306.346L1087.57 310.769L1060.23 286.99L1059.39 287.386L1056.07 325.501L1050.13 328.277L1058.98 347.191L1083.37 335.783L1074.53 316.869Z" fill="#4A4A4A"/>
<path d="M1109.14 323.734L1134.25 311.991L1125.4 293.077L1110.59 300.001L1108.46 295.435L1122.61 288.817C1123.36 288.546 1124.46 288.35 1125.61 288.605C1127.28 288.939 1128.83 290.042 1130.07 292.007C1130.41 292.564 1131.12 293.742 1131.42 294.233C1134.37 298.659 1137.19 302.824 1141.77 304.973C1144.61 306.271 1147.66 306.351 1150.6 304.979C1155.69 302.599 1157.87 296.569 1155.52 291.547C1153.15 286.46 1147.11 284.273 1142.03 286.652C1137.07 288.97 1134.72 294.996 1137.01 299.888C1135.35 298.04 1133.86 295.875 1132.41 293.615C1132.07 293.058 1131.36 291.88 1131.05 291.389C1129.59 289.128 1127.79 287.825 1125.8 287.483L1125.55 287.444L1130.9 284.943C1134.94 283.052 1136.12 279.958 1136.65 277.879C1137.13 275.669 1137.02 274.764 1136.38 273.394L1134.55 269.481C1130.59 261.002 1121.54 258.317 1112.41 262.588L1086.32 274.788L1095.14 293.637L1104.34 289.336L1109.55 300.489L1100.29 304.82L1109.14 323.734ZM1107.94 294.327L1105.38 288.848L1133.23 275.824C1133.23 275.824 1135.84 274.443 1135.37 277.684C1134.91 280.442 1133.18 282.523 1130.38 283.834L1107.94 294.327Z" fill="#4A4A4A"/>
<path d="M1187.96 286.869L1179.12 267.955L1167.05 273.598L1161.83 262.445L1181.73 253.142L1172.91 234.294L1132.08 253.388L1140.9 272.236L1160.79 262.933L1166.01 274.086L1153.94 279.729L1162.79 298.643L1187.96 286.869Z" fill="#4A4A4A"/>
<path d="M1222.14 271.837C1233.36 266.591 1238.88 253.754 1236.05 241.408C1235.59 239.399 1234.93 237.481 1234.01 235.525C1233.13 233.633 1232.08 231.899 1230.86 230.321C1223.24 220.136 1209.79 216.015 1198.5 221.291C1187.35 226.507 1181.79 239.439 1184.63 251.785C1185.09 253.795 1185.75 255.712 1186.66 257.669C1193.16 271.561 1209.16 277.907 1222.14 271.837ZM1195.52 260.284C1192.45 261.718 1188.82 260.399 1187.38 257.333C1185.92 254.203 1187.24 250.565 1190.3 249.132L1225.19 232.813C1228.19 231.41 1231.83 232.73 1233.3 235.86C1234.73 238.925 1233.41 242.563 1230.41 243.966L1195.52 260.284Z" fill="#4A4A4A"/>
<path d="M1264.72 227.919L1252.79 233.501L1247.57 222.348L1257.68 217.621L1284.26 241.831L1300.7 234.144L1291.85 215.23L1279.92 220.812L1274.7 209.66L1286.64 204.078L1277.82 185.229L1252.65 197.003L1261.46 215.851L1273.66 210.148L1278.88 221.3L1268.7 226.059L1242.21 201.883L1225.52 209.692L1234.33 228.54L1246.53 222.836L1251.74 233.989L1239.55 239.693L1248.39 258.607L1273.57 246.833L1264.72 227.919Z" fill="#4A4A4A"/>
<path d="M833.784 724.083C833.784 724.083 852.142 715.577 843.449 696.989L837.867 685.054C829.113 666.336 810.908 675.168 810.908 675.168L785.081 687.246L793.896 706.095L802.049 702.282L807.264 713.435L799.112 717.248L807.957 736.161L833.784 724.083ZM831.528 688.495C831.789 688.373 837.006 685.933 839.508 691.281L839.752 691.803C842.253 697.151 836.939 699.557 836.744 699.648L808.308 712.947L803.092 701.794L831.528 688.495Z" fill="#4A4A4A"/>
<path d="M878.452 704.146C889.67 698.9 895.192 686.064 892.359 673.718C891.896 671.708 891.238 669.791 890.323 667.834C889.438 665.943 888.389 664.208 887.174 662.63C879.549 652.445 866.096 648.324 854.813 653.601C843.661 658.817 838.104 671.749 840.937 684.095C841.4 686.104 842.058 688.022 842.973 689.978C849.47 703.87 865.473 710.216 878.452 704.146ZM851.827 692.594C848.762 694.028 845.124 692.708 843.69 689.643C842.226 686.512 843.546 682.875 846.611 681.441L881.504 665.123C884.504 663.72 888.141 665.039 889.605 668.17C891.039 671.235 889.72 674.872 886.72 676.276L851.827 692.594Z" fill="#4A4A4A"/>
<path d="M942.921 673.042L934.075 654.128L908.966 665.872L903.75 654.719L915.815 649.076L907 630.227L881.826 642.001L890.641 660.85L902.706 655.207L907.922 666.36L895.856 672.002L904.702 690.916L942.921 673.042Z" fill="#4A4A4A"/>
<path d="M984.414 653.637L975.569 634.723L950.459 646.466L945.243 635.313L957.309 629.67L948.494 610.822L923.319 622.596L932.134 641.444L944.2 635.801L949.416 646.954L937.35 652.597L946.196 671.511L984.414 653.637Z" fill="#4A4A4A"/>
<path d="M1012.13 640.676L1003.28 621.762L992.847 626.642L1004 607.834L1008.5 605.729L999.686 586.881L973.99 598.898L982.805 617.747L986.718 615.917L981.758 624.516L974.652 621.56L980.913 618.631L972.098 599.783L954.75 607.896L963.565 626.745L973.413 622.139L988.738 628.564L978.89 633.17L987.735 652.084L1012.13 640.676Z" fill="#4A4A4A"/>
<path d="M830.717 789.547L821.871 770.633L811.632 775.422L809.497 770.856L831.28 760.669C835.324 758.778 836.5 755.684 837.038 753.604C837.514 751.394 837.104 749.838 836.464 748.468L834.938 745.207C830.973 736.728 821.928 734.043 812.797 738.314L787.361 750.209L796.177 769.058L805.372 764.757L810.588 775.91L801.327 780.241L810.173 799.155L830.717 789.547ZM808.978 769.748L806.416 764.269L833.613 751.55C833.613 751.55 836.226 750.169 835.754 753.41C835.296 756.168 833.566 758.248 830.762 759.56L808.978 769.748Z" fill="#4A4A4A"/>
<path d="M857.216 733.437L867.202 742.041L856.701 746.952L857.216 733.437ZM860.908 752.377L856.407 754.481L856.667 748.239L868.146 742.871L872.712 746.856L862.799 751.492L871.644 770.406L892.254 760.767L883.408 741.854L873.952 746.276L846.616 722.497L845.768 722.894L842.45 761.009L836.515 763.784L845.361 782.698L869.753 771.29L860.908 752.377Z" fill="#4A4A4A"/>
<path d="M895.516 759.242L920.626 747.498L911.781 728.585L896.976 735.508L894.841 730.943L908.993 724.324C909.741 724.054 910.842 723.857 911.994 724.113C913.661 724.446 915.21 725.55 916.447 727.515C916.787 728.071 917.497 729.25 917.806 729.741C920.75 734.166 923.572 738.331 928.154 740.48C930.987 741.779 934.045 741.859 936.979 740.486C942.067 738.107 944.254 732.076 941.905 727.055C939.526 721.967 933.496 719.78 928.408 722.159C923.452 724.477 921.104 730.504 923.391 735.395C921.732 733.548 920.243 731.383 918.788 729.122C918.449 728.566 917.739 727.388 917.429 726.897C915.975 724.636 914.173 723.332 912.185 722.99L911.928 722.952L917.276 720.45C921.32 718.559 922.496 715.466 923.034 713.386C923.51 711.176 923.405 710.271 922.765 708.902L920.935 704.989C916.969 696.51 907.924 693.825 898.793 698.095L872.705 710.296L881.52 729.145L890.716 724.844L895.932 735.996L886.671 740.328L895.516 759.242ZM894.322 729.834L891.76 724.356L919.609 711.332C919.609 711.332 922.222 709.951 921.75 713.191C921.292 715.95 919.562 718.03 916.758 719.342L894.322 729.834Z" fill="#4A4A4A"/>
<path d="M974.342 722.376L965.497 703.463L953.431 709.106L948.215 697.953L968.107 688.65L959.292 669.801L918.465 688.895L927.28 707.744L947.172 698.441L952.388 709.594L940.322 715.236L949.167 734.15L974.342 722.376Z" fill="#4A4A4A"/>
<path d="M1008.52 707.344C1019.74 702.098 1025.26 689.262 1022.43 676.916C1021.97 674.906 1021.31 672.989 1020.39 671.032C1019.51 669.141 1018.46 667.406 1017.25 665.828C1009.62 655.643 996.168 651.522 984.885 656.799C973.732 662.015 968.176 674.947 971.009 687.293C971.471 689.302 972.13 691.22 973.045 693.176C979.542 707.068 995.545 713.414 1008.52 707.344ZM981.899 695.792C978.833 697.226 975.196 695.906 973.762 692.841C972.298 689.71 973.618 686.073 976.683 684.639L1011.58 668.321C1014.58 666.918 1018.21 668.237 1019.68 671.368C1021.11 674.433 1019.79 678.07 1016.79 679.474L981.899 695.792Z" fill="#4A4A4A"/>
<path d="M1051.1 663.427L1039.17 669.009L1033.95 657.856L1044.06 653.128L1070.64 677.338L1087.08 669.652L1078.23 650.738L1066.3 656.32L1061.08 645.167L1073.02 639.585L1064.2 620.737L1039.03 632.51L1047.84 651.359L1060.04 645.655L1065.26 656.808L1055.08 661.566L1028.59 637.391L1011.9 645.199L1020.71 664.048L1032.91 658.344L1038.12 669.497L1025.93 675.2L1034.77 694.114L1059.95 682.34L1051.1 663.427Z" fill="#4A4A4A"/>
<path d="M758.679 927.009C758.679 927.009 777.036 918.503 768.343 899.916L762.761 887.98C754.007 869.262 735.803 878.094 735.803 878.094L709.976 890.173L718.791 909.021L726.943 905.209L732.159 916.361L724.006 920.174L732.852 939.088L758.679 927.009ZM756.422 891.422C756.683 891.3 761.901 888.86 764.402 894.208L764.646 894.73C767.147 900.078 761.834 902.483 761.638 902.574L733.202 915.873L727.987 904.721L756.422 891.422Z" fill="#4A4A4A"/>
<path d="M803.347 907.073C814.565 901.827 820.087 888.99 817.253 876.644C816.791 874.635 816.132 872.717 815.217 870.761C814.333 868.869 813.283 867.135 812.068 865.557C804.443 855.372 790.991 851.251 779.708 856.527C768.555 861.743 762.998 874.675 765.831 887.022C766.294 889.031 766.953 890.948 767.868 892.905C774.365 906.797 790.368 913.143 803.347 907.073ZM776.721 895.521C773.656 896.954 770.019 895.635 768.585 892.569C767.121 889.439 768.44 885.801 771.506 884.368L806.398 868.049C809.398 866.646 813.036 867.966 814.5 871.096C815.933 874.161 814.614 877.799 811.614 879.202L776.721 895.521Z" fill="#4A4A4A"/>
<path d="M867.815 875.969L858.97 857.055L833.86 868.798L828.644 857.645L840.71 852.003L831.895 833.154L806.72 844.928L815.535 863.776L827.601 858.133L832.817 869.286L820.751 874.929L829.596 893.843L867.815 875.969Z" fill="#4A4A4A"/>
<path d="M909.309 856.563L900.464 837.649L875.354 849.392L870.138 838.24L882.204 832.597L873.389 813.748L848.214 825.522L857.029 844.371L869.094 838.728L874.31 849.88L862.245 855.523L871.09 874.437L909.309 856.563Z" fill="#4A4A4A"/>
<path d="M937.022 843.602L928.176 824.689L917.741 829.569L928.896 810.76L933.396 808.656L924.581 789.807L898.884 801.825L907.699 820.673L911.612 818.843L906.652 827.442L899.547 824.486L905.808 821.558L896.993 802.709L879.644 810.823L888.459 829.671L898.307 825.066L913.632 831.49L903.784 836.096L912.63 855.01L937.022 843.602Z" fill="#4A4A4A"/>
<path d="M755.611 992.473L746.766 973.559L736.526 978.348L734.391 973.783L756.175 963.595C760.218 961.704 761.395 958.61 761.932 956.531C762.409 954.321 761.999 952.764 761.358 951.394L759.833 948.133C755.868 939.655 746.823 936.97 737.692 941.24L712.256 953.136L721.071 971.984L730.267 967.684L735.483 978.836L726.222 983.167L735.067 1002.08L755.611 992.473ZM733.873 972.674L731.311 967.196L758.507 954.476C758.507 954.476 761.12 953.095 760.649 956.336C760.19 959.094 758.461 961.175 755.656 962.486L733.873 972.674Z" fill="#4A4A4A"/>
<path d="M782.111 936.363L792.096 944.967L781.596 949.878L782.111 936.363ZM785.802 955.303L781.302 957.408L781.562 951.166L793.041 945.797L797.607 949.782L787.693 954.419L796.539 973.332L817.148 963.694L808.303 944.78L798.846 949.203L771.51 925.424L770.662 925.821L767.345 963.935L761.41 966.711L770.255 985.625L794.648 974.217L785.802 955.303Z" fill="#4A4A4A"/>
<path d="M820.411 962.168L845.521 950.425L836.675 931.511L821.87 938.435L819.735 933.87L833.888 927.251C834.636 926.98 835.736 926.784 836.889 927.039C838.555 927.373 840.104 928.476 841.341 930.442C841.681 930.998 842.391 932.176 842.7 932.667C845.644 937.093 848.466 941.258 853.048 943.407C855.881 944.705 858.939 944.785 861.874 943.413C866.961 941.033 869.148 935.003 866.8 929.981C864.421 924.894 858.39 922.707 853.303 925.086C848.346 927.404 845.998 933.43 848.286 938.322C846.627 936.475 845.138 934.31 843.683 932.049C843.343 931.492 842.633 930.314 842.324 929.823C840.869 927.562 839.067 926.259 837.079 925.917L836.823 925.878L842.171 923.377C846.214 921.486 847.391 918.392 847.928 916.313C848.405 914.103 848.3 913.198 847.659 911.828L845.829 907.915C841.864 899.437 832.819 896.752 823.688 901.022L797.6 913.223L806.415 932.071L815.611 927.77L820.827 938.923L811.565 943.254L820.411 962.168ZM819.217 932.761L816.654 927.282L844.503 914.258C844.503 914.258 847.116 912.877 846.645 916.118C846.186 918.876 844.457 920.957 841.652 922.268L819.217 932.761Z" fill="#4A4A4A"/>
<path d="M899.237 925.303L890.391 906.389L878.326 912.032L873.11 900.879L893.002 891.576L884.187 872.728L843.359 891.822L852.174 910.671L872.066 901.367L877.282 912.52L865.216 918.163L874.062 937.077L899.237 925.303Z" fill="#4A4A4A"/>
<path d="M933.418 910.271C944.636 905.025 950.158 892.188 947.325 879.842C946.863 877.833 946.204 875.915 945.289 873.959C944.405 872.067 943.355 870.333 942.14 868.755C934.515 858.57 921.063 854.449 909.78 859.725C898.627 864.941 893.07 877.873 895.903 890.22C896.366 892.229 897.024 894.146 897.939 896.103C904.436 909.995 920.44 916.341 933.418 910.271ZM906.793 898.719C903.728 900.152 900.09 898.833 898.657 895.767C897.193 892.637 898.512 889 901.577 887.566L936.47 871.247C939.47 869.844 943.108 871.164 944.572 874.294C946.005 877.36 944.686 880.997 941.686 882.4L906.793 898.719Z" fill="#4A4A4A"/>
<path d="M975.998 866.353L964.062 871.935L958.847 860.782L968.956 856.055L995.539 880.265L1011.97 872.578L1003.13 853.664L991.194 859.246L985.978 848.094L997.913 842.512L989.098 823.663L963.923 835.437L972.738 854.286L984.935 848.582L990.15 859.734L979.976 864.493L953.488 840.317L936.792 848.126L945.607 866.974L957.803 861.27L963.019 872.423L950.823 878.127L959.668 897.041L984.843 885.267L975.998 866.353Z" fill="#4A4A4A"/>
<path d="M1101.08 766.875C1101.08 766.875 1119.44 758.369 1110.75 739.781L1105.17 727.846C1096.41 709.128 1078.21 717.96 1078.21 717.96L1052.38 730.038L1061.2 748.887L1069.35 745.074L1074.56 756.227L1066.41 760.04L1075.26 778.953L1101.08 766.875ZM1098.83 731.287C1099.09 731.165 1104.31 728.725 1106.81 734.073L1107.05 734.595C1109.55 739.943 1104.24 742.348 1104.04 742.44L1075.61 755.739L1070.39 744.586L1098.83 731.287Z" fill="#4A4A4A"/>
<path d="M1145.75 746.938C1156.97 741.692 1162.49 728.856 1159.66 716.51C1159.2 714.5 1158.54 712.583 1157.62 710.626C1156.74 708.735 1155.69 707 1154.47 705.422C1146.85 695.237 1133.4 691.116 1122.11 696.393C1110.96 701.609 1105.4 714.541 1108.24 726.887C1108.7 728.896 1109.36 730.814 1110.27 732.77C1116.77 746.662 1132.77 753.008 1145.75 746.938ZM1119.13 735.386C1116.06 736.82 1112.42 735.5 1110.99 732.435C1109.53 729.304 1110.84 725.667 1113.91 724.233L1148.8 707.915C1151.8 706.512 1155.44 707.831 1156.9 710.962C1158.34 714.027 1157.02 717.664 1154.02 719.068L1119.13 735.386Z" fill="#4A4A4A"/>
<path d="M1210.22 715.834L1201.37 696.92L1176.26 708.664L1171.05 697.511L1183.11 691.868L1174.3 673.019L1149.12 684.793L1157.94 703.642L1170.01 697.999L1175.22 709.152L1163.16 714.794L1172 733.708L1210.22 715.834Z" fill="#4A4A4A"/>
<path d="M1251.71 696.429L1242.87 677.515L1217.76 689.258L1212.54 678.105L1224.61 672.462L1215.79 653.614L1190.62 665.388L1199.43 684.236L1211.5 678.593L1216.71 689.746L1204.65 695.389L1213.49 714.303L1251.71 696.429Z" fill="#4A4A4A"/>
<path d="M1279.43 683.468L1270.58 664.554L1260.15 669.434L1271.3 650.626L1275.8 648.521L1266.99 629.673L1241.29 641.69L1250.1 660.539L1254.02 658.709L1249.06 667.308L1241.95 664.352L1248.21 661.423L1239.4 642.575L1222.05 650.688L1230.86 669.537L1240.71 664.931L1256.04 671.356L1246.19 675.962L1255.03 694.876L1279.43 683.468Z" fill="#4A4A4A"/>
<path d="M1098.02 832.339L1089.17 813.425L1078.93 818.214L1076.8 813.648L1098.58 803.461C1102.62 801.57 1103.8 798.476 1104.34 796.396C1104.81 794.186 1104.4 792.63 1103.76 791.26L1102.24 787.999C1098.27 779.52 1089.23 776.835 1080.1 781.106L1054.66 793.001L1063.48 811.85L1072.67 807.549L1077.89 818.702L1068.63 823.033L1077.47 841.947L1098.02 832.339ZM1076.28 812.54L1073.72 807.061L1100.91 794.342C1100.91 794.342 1103.52 792.961 1103.05 796.202C1102.59 798.96 1100.87 801.04 1098.06 802.352L1076.28 812.54Z" fill="#4A4A4A"/>
<path d="M1124.52 776.229L1134.5 784.833L1124 789.744L1124.52 776.229ZM1128.21 795.169L1123.71 797.273L1123.97 791.031L1135.45 785.663L1140.01 789.648L1130.1 794.284L1138.94 813.198L1159.55 803.559L1150.71 784.646L1141.25 789.068L1113.91 765.289L1113.07 765.686L1109.75 803.801L1103.81 806.576L1112.66 825.49L1137.05 814.082L1128.21 795.169Z" fill="#4A4A4A"/>
<path d="M1162.82 802.034L1187.93 790.29L1179.08 771.377L1164.27 778.3L1162.14 773.735L1176.29 767.116C1177.04 766.846 1178.14 766.649 1179.29 766.905C1180.96 767.238 1182.51 768.342 1183.75 770.307C1184.09 770.863 1184.8 772.042 1185.1 772.533C1188.05 776.958 1190.87 781.123 1195.45 783.272C1198.29 784.571 1201.34 784.651 1204.28 783.278C1209.37 780.899 1211.55 774.868 1209.2 769.847C1206.83 764.759 1200.79 762.572 1195.71 764.951C1190.75 767.269 1188.4 773.296 1190.69 778.187C1189.03 776.34 1187.54 774.175 1186.09 771.914C1185.75 771.358 1185.04 770.18 1184.73 769.689C1183.27 767.428 1181.47 766.124 1179.48 765.782L1179.23 765.744L1184.58 763.242C1188.62 761.351 1189.8 758.258 1190.33 756.178C1190.81 753.968 1190.7 753.063 1190.06 751.694L1188.23 747.781C1184.27 739.302 1175.22 736.617 1166.09 740.887L1140 753.088L1148.82 771.937L1158.02 767.636L1163.23 778.788L1153.97 783.12L1162.82 802.034ZM1161.62 772.626L1159.06 767.148L1186.91 754.124C1186.91 754.124 1189.52 752.743 1189.05 755.983C1188.59 758.742 1186.86 760.822 1184.06 762.134L1161.62 772.626Z" fill="#4A4A4A"/>
<path d="M1241.64 765.168L1232.8 746.255L1220.73 751.898L1215.51 740.745L1235.41 731.442L1226.59 712.593L1185.76 731.687L1194.58 750.536L1214.47 741.233L1219.69 752.386L1207.62 758.028L1216.47 776.942L1241.64 765.168Z" fill="#4A4A4A"/>
<path d="M1275.82 750.136C1287.04 744.89 1292.56 732.054 1289.73 719.708C1289.27 717.698 1288.61 715.781 1287.69 713.824C1286.81 711.933 1285.76 710.198 1284.54 708.62C1276.92 698.435 1263.47 694.314 1252.18 699.591C1241.03 704.807 1235.47 717.739 1238.31 730.085C1238.77 732.094 1239.43 734.012 1240.34 735.968C1246.84 749.86 1262.84 756.206 1275.82 750.136ZM1249.2 738.584C1246.13 740.018 1242.49 738.698 1241.06 735.633C1239.6 732.502 1240.92 728.865 1243.98 727.431L1278.87 711.113C1281.87 709.71 1285.51 711.029 1286.98 714.16C1288.41 717.225 1287.09 720.862 1284.09 722.266L1249.2 738.584Z" fill="#4A4A4A"/>
<path d="M1318.4 706.219L1306.47 711.801L1301.25 700.648L1311.36 695.92L1337.94 720.13L1354.38 712.444L1345.53 693.53L1333.6 699.112L1328.38 687.959L1340.32 682.377L1331.5 663.529L1306.33 675.302L1315.14 694.151L1327.34 688.447L1332.55 699.6L1322.38 704.358L1295.89 680.183L1279.2 687.991L1288.01 706.84L1300.21 701.136L1305.42 712.289L1293.23 717.992L1302.07 736.906L1327.25 725.132L1318.4 706.219Z" fill="#4A4A4A"/>
<path d="M1176.19 563.948C1176.19 563.948 1194.55 555.442 1185.85 536.855L1180.27 524.919C1171.52 506.201 1153.31 515.033 1153.31 515.033L1127.49 527.112L1136.3 545.96L1144.45 542.148L1149.67 553.3L1141.52 557.113L1150.36 576.027L1176.19 563.948ZM1173.93 528.361C1174.19 528.239 1179.41 525.799 1181.91 531.147L1182.16 531.668C1184.66 537.016 1179.34 539.422 1179.15 539.513L1150.71 552.812L1145.5 541.66L1173.93 528.361Z" fill="#4A4A4A"/>
<path d="M1220.86 544.012C1232.07 538.766 1237.6 525.929 1234.76 513.583C1234.3 511.574 1233.64 509.656 1232.73 507.7C1231.84 505.808 1230.79 504.074 1229.58 502.496C1221.95 492.311 1208.5 488.19 1197.22 493.466C1186.07 498.682 1180.51 511.614 1183.34 523.96C1183.8 525.97 1184.46 527.887 1185.38 529.844C1191.87 543.736 1207.88 550.082 1220.86 544.012ZM1194.23 532.459C1191.17 533.893 1187.53 532.574 1186.1 529.508C1184.63 526.378 1185.95 522.74 1189.02 521.307L1223.91 504.988C1226.91 503.585 1230.55 504.905 1232.01 508.035C1233.44 511.1 1232.12 514.738 1229.12 516.141L1194.23 532.459Z" fill="#4A4A4A"/>
<path d="M1285.33 512.908L1276.48 493.994L1251.37 505.737L1246.15 494.584L1258.22 488.942L1249.41 470.093L1224.23 481.867L1233.05 500.715L1245.11 495.072L1250.33 506.225L1238.26 511.868L1247.11 530.782L1285.33 512.908Z" fill="#4A4A4A"/>
<path d="M1326.82 493.502L1317.97 474.588L1292.86 486.331L1287.65 475.179L1299.71 469.536L1290.9 450.687L1265.72 462.461L1274.54 481.31L1286.6 475.667L1291.82 486.819L1279.75 492.462L1288.6 511.376L1326.82 493.502Z" fill="#4A4A4A"/>
<path d="M1354.53 480.541L1345.69 461.628L1335.25 466.508L1346.41 447.699L1350.91 445.595L1342.09 426.746L1316.39 438.764L1325.21 457.612L1329.12 455.782L1324.16 464.381L1317.06 461.425L1323.32 458.497L1314.5 439.648L1297.15 447.762L1305.97 466.61L1315.82 462.005L1331.14 468.429L1321.29 473.035L1330.14 491.949L1354.53 480.541Z" fill="#4A4A4A"/>
<path d="M1173.12 629.412L1164.28 610.498L1154.04 615.287L1151.9 610.722L1173.68 600.534C1177.73 598.643 1178.9 595.549 1179.44 593.47C1179.92 591.26 1179.51 589.703 1178.87 588.333L1177.34 585.072C1173.38 576.594 1164.33 573.909 1155.2 578.179L1129.77 590.075L1138.58 608.923L1147.78 604.623L1152.99 615.775L1143.73 620.106L1152.58 639.02L1173.12 629.412ZM1151.38 609.613L1148.82 604.135L1176.02 591.415C1176.02 591.415 1178.63 590.034 1178.16 593.275C1177.7 596.033 1175.97 598.114 1173.17 599.425L1151.38 609.613Z" fill="#4A4A4A"/>
<path d="M1199.62 573.302L1209.61 581.906L1199.11 586.817L1199.62 573.302ZM1203.31 592.242L1198.81 594.347L1199.07 588.105L1210.55 582.736L1215.12 586.721L1205.2 591.358L1214.05 610.271L1234.66 600.633L1225.81 581.719L1216.36 586.142L1189.02 562.363L1188.17 562.759L1184.85 600.874L1178.92 603.65L1187.77 622.564L1212.16 611.156L1203.31 592.242Z" fill="#4A4A4A"/>
<path d="M1237.92 599.107L1263.03 587.364L1254.19 568.45L1239.38 575.374L1237.25 570.808L1251.4 564.19C1252.15 563.919 1253.25 563.723 1254.4 563.978C1256.07 564.312 1257.61 565.415 1258.85 567.38C1259.19 567.937 1259.9 569.115 1260.21 569.606C1263.15 574.032 1265.98 578.197 1270.56 580.346C1273.39 581.644 1276.45 581.724 1279.38 580.352C1284.47 577.972 1286.66 571.942 1284.31 566.92C1281.93 561.833 1275.9 559.646 1270.81 562.025C1265.86 564.343 1263.51 570.369 1265.8 575.261C1264.14 573.413 1262.65 571.248 1261.19 568.988C1260.85 568.431 1260.14 567.253 1259.83 566.762C1258.38 564.501 1256.58 563.198 1254.59 562.856L1254.33 562.817L1259.68 560.316C1263.72 558.425 1264.9 555.331 1265.44 553.252C1265.91 551.042 1265.81 550.137 1265.17 548.767L1263.34 544.854C1259.37 536.375 1250.33 533.69 1241.2 537.961L1215.11 550.161L1223.92 569.01L1233.12 564.709L1238.34 575.862L1229.08 580.193L1237.92 599.107ZM1236.73 569.7L1234.16 564.221L1262.01 551.197C1262.01 551.197 1264.63 549.816 1264.15 553.057C1263.7 555.815 1261.97 557.896 1259.16 559.207L1236.73 569.7Z" fill="#4A4A4A"/>
<path d="M1316.75 562.242L1307.9 543.328L1295.84 548.971L1290.62 537.818L1310.51 528.515L1301.7 509.667L1260.87 528.761L1269.68 547.609L1289.58 538.306L1294.79 549.459L1282.73 555.102L1291.57 574.016L1316.75 562.242Z" fill="#4A4A4A"/>
<path d="M1350.93 547.21C1362.15 541.964 1367.67 529.127 1364.84 516.781C1364.37 514.772 1363.71 512.854 1362.8 510.898C1361.91 509.006 1360.86 507.272 1359.65 505.694C1352.03 495.509 1338.57 491.388 1327.29 496.664C1316.14 501.88 1310.58 514.812 1313.41 527.159C1313.88 529.168 1314.53 531.085 1315.45 533.042C1321.95 546.934 1337.95 553.28 1350.93 547.21ZM1324.3 535.657C1321.24 537.091 1317.6 535.772 1316.17 532.706C1314.7 529.576 1316.02 525.938 1319.09 524.505L1353.98 508.186C1356.98 506.783 1360.62 508.103 1362.08 511.233C1363.52 514.298 1362.2 517.936 1359.2 519.339L1324.3 535.657Z" fill="#4A4A4A"/>
<path d="M1393.51 503.292L1381.57 508.874L1376.36 497.721L1386.47 492.994L1413.05 517.204L1429.48 509.517L1420.64 490.603L1408.7 496.185L1403.49 485.033L1415.42 479.451L1406.61 460.602L1381.43 472.376L1390.25 491.224L1402.44 485.521L1407.66 496.673L1397.49 501.432L1371 477.256L1354.3 485.065L1363.12 503.913L1375.31 498.209L1380.53 509.362L1368.33 515.066L1377.18 533.98L1402.35 522.206L1393.51 503.292Z" fill="#4A4A4A"/>
<path d="M501.108 376.263C501.108 376.263 519.465 367.757 510.772 349.17L505.191 337.234C496.437 318.516 478.232 327.348 478.232 327.348L452.405 339.427L461.22 358.275L469.372 354.463L474.588 365.615L466.435 369.428L475.281 388.342L501.108 376.263ZM498.852 340.676C499.112 340.554 504.33 338.114 506.831 343.462L507.075 343.983C509.576 349.331 504.263 351.737 504.067 351.828L475.631 365.127L470.416 353.975L498.852 340.676Z" fill="#4A4A4A"/>
<path d="M545.776 356.327C556.994 351.081 562.516 338.244 559.683 325.898C559.22 323.889 558.561 321.971 557.646 320.015C556.762 318.123 555.712 316.389 554.497 314.811C546.873 304.626 533.42 300.505 522.137 305.781C510.984 310.997 505.427 323.929 508.261 336.275C508.723 338.285 509.382 340.202 510.297 342.159C516.794 356.051 532.797 362.397 545.776 356.327ZM519.151 344.774C516.085 346.208 512.448 344.889 511.014 341.823C509.55 338.693 510.869 335.055 513.935 333.622L548.827 317.303C551.827 315.9 555.465 317.22 556.929 320.35C558.363 323.415 557.043 327.053 554.043 328.456L519.151 344.774Z" fill="#4A4A4A"/>
<path d="M610.244 325.223L601.399 306.309L576.289 318.052L571.073 306.899L583.139 301.257L574.324 282.408L549.149 294.182L557.964 313.03L570.03 307.387L575.246 318.54L563.18 324.183L572.026 343.097L610.244 325.223Z" fill="#4A4A4A"/>
<path d="M651.738 305.817L642.893 286.903L617.783 298.646L612.567 287.494L624.633 281.851L615.818 263.002L590.643 274.776L599.458 293.625L611.524 287.982L616.739 299.134L604.674 304.777L613.519 323.691L651.738 305.817Z" fill="#4A4A4A"/>
<path d="M679.451 292.856L670.605 273.943L660.17 278.823L671.325 260.014L675.825 257.91L667.01 239.061L641.313 251.079L650.128 269.927L654.041 268.097L649.081 276.696L641.976 273.74L648.237 270.812L639.422 251.963L622.073 260.077L630.888 278.925L640.737 274.32L656.061 280.744L646.213 285.35L655.059 304.264L679.451 292.856Z" fill="#4A4A4A"/>
<path d="M498.041 441.727L489.195 422.813L478.955 427.602L476.82 423.037L498.604 412.849C502.647 410.958 503.824 407.864 504.361 405.785C504.838 403.575 504.428 402.018 503.787 400.648L502.262 397.387C498.297 388.909 489.252 386.224 480.121 390.494L454.685 402.39L463.5 421.238L472.696 416.938L477.912 428.09L468.651 432.421L477.496 451.335L498.041 441.727ZM476.302 421.928L473.74 416.45L500.936 403.73C500.936 403.73 503.549 402.349 503.078 405.59C502.619 408.348 500.89 410.429 498.085 411.74L476.302 421.928Z" fill="#4A4A4A"/>
<path d="M524.54 385.617L534.525 394.221L524.025 399.132L524.54 385.617ZM528.231 404.557L523.731 406.662L523.991 400.42L535.47 395.051L540.036 399.036L530.123 403.673L538.968 422.586L559.578 412.948L550.732 394.034L541.275 398.457L513.939 374.678L513.092 375.074L509.774 413.189L503.839 415.965L512.684 434.879L537.077 423.471L528.231 404.557Z" fill="#4A4A4A"/>
<path d="M562.84 411.422L587.95 399.679L579.104 380.765L564.299 387.689L562.164 383.123L576.317 376.505C577.065 376.234 578.165 376.038 579.318 376.293C580.984 376.627 582.534 377.73 583.771 379.695C584.11 380.252 584.82 381.43 585.13 381.921C588.074 386.347 590.896 390.512 595.478 392.661C598.31 393.959 601.368 394.039 604.303 392.667C609.39 390.287 611.577 384.257 609.229 379.235C606.85 374.148 600.819 371.961 595.732 374.34C590.775 376.658 588.427 382.684 590.715 387.576C589.056 385.728 587.567 383.563 586.112 381.303C585.772 380.746 585.062 379.568 584.753 379.077C583.298 376.816 581.497 375.513 579.508 375.171L579.252 375.132L584.6 372.631C588.643 370.74 589.82 367.646 590.357 365.567C590.834 363.356 590.729 362.452 590.088 361.082L588.258 357.169C584.293 348.69 575.248 346.006 566.117 350.276L540.029 362.476L548.844 381.325L558.04 377.024L563.256 388.177L553.995 392.508L562.84 411.422ZM561.646 382.015L559.083 376.536L586.932 363.512C586.932 363.512 589.545 362.131 589.074 365.372C588.615 368.13 586.886 370.211 584.081 371.522L561.646 382.015Z" fill="#4A4A4A"/>
<path d="M641.666 374.557L632.82 355.643L620.755 361.286L615.539 350.133L635.431 340.83L626.616 321.982L585.788 341.076L594.603 359.924L614.495 350.621L619.711 361.774L607.646 367.417L616.491 386.331L641.666 374.557Z" fill="#4A4A4A"/>
<path d="M675.848 359.525C687.065 354.279 692.588 341.442 689.754 329.096C689.292 327.087 688.633 325.169 687.718 323.213C686.834 321.321 685.784 319.587 684.569 318.009C676.944 307.824 663.492 303.703 652.209 308.979C641.056 314.195 635.499 327.127 638.332 339.473C638.795 341.483 639.453 343.4 640.369 345.357C646.865 359.249 662.869 365.595 675.848 359.525ZM649.222 347.972C646.157 349.406 642.52 348.087 641.086 345.021C639.622 341.891 640.941 338.253 644.006 336.82L678.899 320.501C681.899 319.098 685.537 320.418 687.001 323.548C688.434 326.613 687.115 330.251 684.115 331.654L649.222 347.972Z" fill="#4A4A4A"/>
<path d="M718.427 315.607L706.492 321.189L701.276 310.036L711.385 305.309L737.968 329.519L754.404 321.832L745.558 302.918L733.623 308.5L728.407 297.348L740.342 291.766L731.527 272.917L706.352 284.691L715.168 303.539L727.364 297.836L732.579 308.988L722.405 313.747L695.917 289.571L679.221 297.38L688.036 316.228L700.232 310.524L705.448 321.677L693.252 327.381L702.097 346.295L727.272 334.521L718.427 315.607Z" fill="#4A4A4A"/>
<path d="M629.894 651.636C629.894 651.636 648.251 643.13 639.558 624.543L633.976 612.607C625.222 593.889 607.017 602.721 607.017 602.721L581.19 614.8L590.005 633.648L598.158 629.836L603.373 640.988L595.221 644.801L604.066 663.715L629.894 651.636ZM627.637 616.049C627.898 615.927 633.115 613.487 635.617 618.835L635.861 619.357C638.362 624.705 633.048 627.11 632.853 627.201L604.417 640.5L599.201 629.348L627.637 616.049Z" fill="#4A4A4A"/>
<path d="M674.561 631.7C685.779 626.454 691.301 613.617 688.468 601.271C688.005 599.262 687.347 597.344 686.432 595.388C685.547 593.496 684.498 591.762 683.283 590.184C675.658 579.999 662.205 575.878 650.922 581.154C639.77 586.37 634.213 599.302 637.046 611.648C637.509 613.658 638.167 615.575 639.082 617.532C645.579 631.424 661.582 637.77 674.561 631.7ZM647.936 620.147C644.871 621.581 641.233 620.262 639.8 617.196C638.335 614.066 639.655 610.428 642.72 608.995L677.613 592.676C680.613 591.273 684.25 592.593 685.714 595.723C687.148 598.788 685.829 602.426 682.829 603.829L647.936 620.147Z" fill="#4A4A4A"/>
<path d="M739.03 600.596L730.184 581.682L705.075 593.425L699.859 582.272L711.925 576.63L703.11 557.781L677.935 569.555L686.75 588.403L698.815 582.76L704.031 593.913L691.966 599.556L700.811 618.47L739.03 600.596Z" fill="#4A4A4A"/>
<path d="M780.524 581.19L771.678 562.276L746.568 574.019L741.353 562.867L753.418 557.224L744.603 538.375L719.428 550.149L728.243 568.998L740.309 563.355L745.525 574.507L733.459 580.15L742.305 599.064L780.524 581.19Z" fill="#4A4A4A"/>
<path d="M808.236 568.229L799.391 549.316L788.956 554.196L800.11 535.387L804.61 533.283L795.795 514.434L770.099 526.452L778.914 545.3L782.827 543.47L777.867 552.069L770.761 549.113L777.022 546.185L768.207 527.336L750.859 535.45L759.674 554.298L769.522 549.693L784.847 556.117L774.999 560.723L783.844 579.637L808.236 568.229Z" fill="#4A4A4A"/>
<path d="M626.826 717.1L617.98 698.186L607.741 702.975L605.606 698.41L627.389 688.222C631.433 686.331 632.609 683.237 633.147 681.158C633.623 678.948 633.213 677.391 632.573 676.021L631.048 672.76C627.082 664.282 618.037 661.597 608.906 665.867L583.471 677.763L592.286 696.611L601.482 692.311L606.697 703.463L597.436 707.794L606.282 726.708L626.826 717.1ZM605.087 697.301L602.525 691.823L629.722 679.103C629.722 679.103 632.335 677.722 631.863 680.963C631.405 683.721 629.675 685.802 626.871 687.113L605.087 697.301Z" fill="#4A4A4A"/>
<path d="M653.325 660.99L663.311 669.594L652.81 674.505L653.325 660.99ZM657.017 679.93L652.516 682.035L652.777 675.793L664.255 670.424L668.821 674.409L658.908 679.046L667.753 697.959L688.363 688.321L679.517 669.407L670.061 673.83L642.725 650.051L641.877 650.448L638.559 688.562L632.624 691.338L641.47 710.252L665.862 698.844L657.017 679.93Z" fill="#4A4A4A"/>
<path d="M691.626 686.795L716.735 675.052L707.89 656.138L693.085 663.062L690.95 658.497L705.102 651.878C705.85 651.607 706.951 651.411 708.103 651.666C709.77 652 711.319 653.103 712.556 655.068C712.896 655.625 713.606 656.803 713.915 657.294C716.859 661.72 719.681 665.885 724.263 668.034C727.096 669.332 730.154 669.412 733.089 668.04C738.176 665.66 740.363 659.63 738.014 654.608C735.635 649.521 729.605 647.334 724.518 649.713C719.561 652.031 717.213 658.057 719.5 662.949C717.841 661.101 716.352 658.937 714.897 656.676C714.558 656.119 713.848 654.941 713.539 654.45C712.084 652.189 710.282 650.886 708.294 650.544L708.037 650.505L713.385 648.004C717.429 646.113 718.605 643.019 719.143 640.94C719.619 638.73 719.514 637.825 718.874 636.455L717.044 632.542C713.078 624.064 704.033 621.379 694.902 625.649L668.814 637.85L677.629 656.698L686.825 652.397L692.041 663.55L682.78 667.881L691.626 686.795ZM690.431 657.388L687.869 651.909L715.718 638.885C715.718 638.885 718.331 637.504 717.859 640.745C717.401 643.503 715.671 645.584 712.867 646.895L690.431 657.388Z" fill="#4A4A4A"/>
<path d="M770.451 649.93L761.606 631.016L749.54 636.659L744.324 625.506L764.216 616.203L755.401 597.355L714.574 616.449L723.389 635.297L743.281 625.994L748.497 637.147L736.431 642.79L745.277 661.704L770.451 649.93Z" fill="#4A4A4A"/>
<path d="M804.633 634.898C815.851 629.652 821.373 616.815 818.54 604.469C818.077 602.46 817.419 600.542 816.504 598.586C815.619 596.694 814.569 594.96 813.354 593.382C805.73 583.197 792.277 579.076 780.994 584.352C769.841 589.568 764.285 602.5 767.118 614.846C767.581 616.856 768.239 618.773 769.154 620.73C775.651 634.622 791.654 640.968 804.633 634.898ZM778.008 623.345C774.942 624.779 771.305 623.46 769.871 620.394C768.407 617.264 769.727 613.626 772.792 612.193L807.685 595.874C810.685 594.471 814.322 595.791 815.786 598.921C817.22 601.986 815.901 605.624 812.9 607.027L778.008 623.345Z" fill="#4A4A4A"/>
<path d="M847.212 590.98L835.277 596.562L830.061 585.409L840.17 580.682L866.754 604.892L883.189 597.205L874.344 578.291L862.408 583.873L857.193 572.721L869.128 567.139L860.313 548.29L835.138 560.064L843.953 578.912L856.149 573.209L861.365 584.361L851.191 589.12L824.703 564.944L808.006 572.753L816.821 591.601L829.018 585.897L834.233 597.05L822.037 602.754L830.883 621.668L856.058 609.894L847.212 590.98Z" fill="#4A4A4A"/>
<path d="M158.703 536.398C158.703 536.398 177.061 527.892 168.368 509.304L162.786 497.369C154.032 478.651 135.827 487.483 135.827 487.483L110 499.561L118.815 518.41L126.968 514.597L132.183 525.75L124.031 529.562L132.876 548.476L158.703 536.398ZM156.447 500.81C156.708 500.688 161.925 498.248 164.427 503.596L164.671 504.118C167.172 509.466 161.858 511.871 161.663 511.963L133.227 525.262L128.011 514.109L156.447 500.81Z" fill="#4A4A4A"/>
<path d="M203.371 516.461C214.589 511.215 220.111 498.379 217.278 486.032C216.815 484.023 216.157 482.106 215.242 480.149C214.357 478.258 213.308 476.523 212.093 474.945C204.468 464.76 191.015 460.639 179.732 465.916C168.58 471.132 163.023 484.064 165.856 496.41C166.319 498.419 166.977 500.337 167.892 502.293C174.389 516.185 190.392 522.531 203.371 516.461ZM176.746 504.909C173.681 506.343 170.043 505.023 168.61 501.958C167.145 498.827 168.465 495.19 171.53 493.756L206.423 477.438C209.423 476.035 213.06 477.354 214.524 480.485C215.958 483.55 214.639 487.187 211.639 488.59L176.746 504.909Z" fill="#4A4A4A"/>
<path d="M267.84 485.357L258.994 466.443L233.885 478.186L228.669 467.034L240.735 461.391L231.919 442.542L206.745 454.316L215.56 473.165L227.625 467.522L232.841 478.674L220.775 484.317L229.621 503.231L267.84 485.357Z" fill="#4A4A4A"/>
<path d="M309.333 465.951L300.488 447.038L275.378 458.781L270.162 447.628L282.228 441.985L273.413 423.137L248.238 434.911L257.053 453.759L269.119 448.116L274.335 459.269L262.269 464.912L271.115 483.826L309.333 465.951Z" fill="#4A4A4A"/>
<path d="M337.046 452.991L328.201 434.077L317.766 438.957L328.92 420.149L333.42 418.044L324.605 399.196L298.909 411.213L307.724 430.062L311.637 428.232L306.677 436.831L299.571 433.875L305.832 430.946L297.017 412.098L279.669 420.211L288.484 439.06L298.332 434.454L313.657 440.879L303.809 445.485L312.654 464.398L337.046 452.991Z" fill="#4A4A4A"/>
<path d="M155.636 601.862L146.79 582.948L136.551 587.737L134.416 583.171L156.199 572.984C160.243 571.093 161.419 567.999 161.957 565.919C162.433 563.709 162.023 562.153 161.383 560.783L159.857 557.522C155.892 549.043 146.847 546.358 137.716 550.629L112.28 562.524L121.095 581.373L130.292 577.072L135.507 588.225L126.246 592.556L135.092 611.47L155.636 601.862ZM133.897 582.063L131.335 576.584L158.532 563.865C158.532 563.865 161.145 562.484 160.673 565.725C160.215 568.483 158.485 570.563 155.681 571.875L133.897 582.063Z" fill="#4A4A4A"/>
<path d="M182.135 545.752L192.121 554.356L181.62 559.267L182.135 545.752ZM185.827 564.692L181.326 566.796L181.587 560.554L193.065 555.186L197.631 559.171L187.718 563.807L196.563 582.721L217.173 573.082L208.327 554.168L198.871 558.591L171.535 534.812L170.687 535.209L167.369 573.324L161.434 576.099L170.28 595.013L194.672 583.605L185.827 564.692Z" fill="#4A4A4A"/>
<path d="M220.435 571.556L245.545 559.813L236.7 540.899L221.895 547.823L219.76 543.258L233.912 536.639C234.66 536.369 235.76 536.172 236.913 536.428C238.58 536.761 240.129 537.865 241.366 539.83C241.706 540.386 242.416 541.565 242.725 542.056C245.669 546.481 248.491 550.646 253.073 552.795C255.906 554.094 258.964 554.174 261.898 552.801C266.986 550.422 269.173 544.391 266.824 539.37C264.445 534.282 258.415 532.095 253.327 534.474C248.371 536.792 246.023 542.819 248.31 547.71C246.651 545.863 245.162 543.698 243.707 541.437C243.368 540.881 242.658 539.703 242.348 539.211C240.894 536.951 239.092 535.647 237.104 535.305L236.847 535.267L242.195 532.765C246.239 530.874 247.415 527.781 247.953 525.701C248.429 523.491 248.324 522.586 247.684 521.217L245.854 517.304C241.888 508.825 232.843 506.14 223.712 510.41L197.624 522.611L206.439 541.46L215.635 537.159L220.851 548.311L211.59 552.643L220.435 571.556ZM219.241 542.149L216.679 536.671L244.528 523.646C244.528 523.646 247.141 522.266 246.669 525.506C246.211 528.264 244.481 530.345 241.677 531.657L219.241 542.149Z" fill="#4A4A4A"/>
<path d="M299.261 534.691L290.416 515.778L278.35 521.42L273.134 510.268L293.026 500.965L284.211 482.116L243.384 501.21L252.199 520.059L272.091 510.756L277.307 521.909L265.241 527.551L274.087 546.465L299.261 534.691Z" fill="#4A4A4A"/>
<path d="M333.443 519.659C344.661 514.413 350.183 501.577 347.35 489.231C346.887 487.221 346.229 485.304 345.314 483.347C344.429 481.456 343.379 479.721 342.164 478.143C334.54 467.958 321.087 463.837 309.804 469.114C298.651 474.33 293.095 487.262 295.928 499.608C296.39 501.617 297.049 503.535 297.964 505.491C304.461 519.383 320.464 525.729 333.443 519.659ZM306.818 508.107C303.752 509.541 300.115 508.221 298.681 505.156C297.217 502.025 298.537 498.388 301.602 496.954L336.494 480.636C339.495 479.233 343.132 480.552 344.596 483.683C346.03 486.748 344.71 490.385 341.71 491.788L306.818 508.107Z" fill="#4A4A4A"/>
<path d="M376.022 475.742L364.087 481.323L358.871 470.171L368.98 465.443L395.564 489.653L411.999 481.967L403.154 463.053L391.218 468.635L386.003 457.482L397.938 451.9L389.123 433.052L363.948 444.825L372.763 463.674L384.959 457.97L390.175 469.123L380.001 473.881L353.513 449.706L336.816 457.514L345.631 476.363L357.828 470.659L363.043 481.812L350.847 487.515L359.693 506.429L384.868 494.655L376.022 475.742Z" fill="#4A4A4A"/>
<path d="M287.489 811.771C287.489 811.771 305.846 803.265 297.153 784.677L291.571 772.742C282.817 754.024 264.613 762.856 264.613 762.856L238.785 774.934L247.6 793.783L255.753 789.97L260.969 801.123L252.816 804.936L261.662 823.849L287.489 811.771ZM285.232 776.183C285.493 776.061 290.711 773.621 293.212 778.969L293.456 779.491C295.957 784.839 290.644 787.244 290.448 787.336L262.012 800.635L256.796 789.482L285.232 776.183Z" fill="#4A4A4A"/>
<path d="M332.157 791.834C343.374 786.588 348.897 773.752 346.063 761.406C345.601 759.396 344.942 757.479 344.027 755.522C343.143 753.631 342.093 751.896 340.878 750.318C333.253 740.133 319.801 736.012 308.518 741.289C297.365 746.505 291.808 759.437 294.641 771.783C295.104 773.792 295.762 775.71 296.678 777.666C303.174 791.558 319.178 797.904 332.157 791.834ZM305.531 780.282C302.466 781.716 298.829 780.396 297.395 777.331C295.931 774.2 297.25 770.563 300.315 769.129L335.208 752.811C338.208 751.408 341.846 752.727 343.31 755.858C344.743 758.923 343.424 762.56 340.424 763.964L305.531 780.282Z" fill="#4A4A4A"/>
<path d="M396.625 760.73L387.78 741.816L362.67 753.56L357.454 742.407L369.52 736.764L360.705 717.915L335.53 729.689L344.345 748.538L356.411 742.895L361.627 754.048L349.561 759.69L358.406 778.604L396.625 760.73Z" fill="#4A4A4A"/>
<path d="M438.119 741.325L429.273 722.411L404.164 734.154L398.948 723.001L411.014 717.358L402.199 698.51L377.024 710.284L385.839 729.132L397.904 723.489L403.12 734.642L391.055 740.285L399.9 759.199L438.119 741.325Z" fill="#4A4A4A"/>
<path d="M465.832 728.364L456.986 709.45L446.551 714.33L457.705 695.522L462.206 693.417L453.391 674.569L427.694 686.586L436.509 705.435L440.422 703.605L435.462 712.204L428.356 709.248L434.618 706.319L425.803 687.471L408.454 695.584L417.269 714.433L427.117 709.827L442.442 716.252L432.594 720.858L441.44 739.772L465.832 728.364Z" fill="#4A4A4A"/>
<path d="M284.421 877.235L275.576 858.321L265.336 863.11L263.201 858.544L284.985 848.357C289.028 846.466 290.204 843.372 290.742 841.292C291.219 839.082 290.809 837.526 290.168 836.156L288.643 832.895C284.678 824.416 275.632 821.731 266.502 826.002L241.066 837.897L249.881 856.746L259.077 852.445L264.293 863.598L255.032 867.929L263.877 886.843L284.421 877.235ZM262.683 857.436L260.12 851.957L287.317 839.238C287.317 839.238 289.93 837.857 289.459 841.098C289 843.856 287.271 845.936 284.466 847.248L262.683 857.436Z" fill="#4A4A4A"/>
<path d="M310.921 821.125L320.906 829.729L310.406 834.64L310.921 821.125ZM314.612 840.065L310.112 842.169L310.372 835.927L321.851 830.559L326.417 834.544L316.503 839.18L325.349 858.094L345.958 848.455L337.113 829.542L327.656 833.964L300.32 810.185L299.472 810.582L296.155 848.697L290.22 851.472L299.065 870.386L323.457 858.978L314.612 840.065Z" fill="#4A4A4A"/>
<path d="M349.221 846.93L374.331 835.186L365.485 816.273L350.68 823.196L348.545 818.631L362.698 812.012C363.446 811.742 364.546 811.545 365.699 811.801C367.365 812.134 368.914 813.238 370.151 815.203C370.491 815.759 371.201 816.938 371.51 817.429C374.454 821.854 377.276 826.019 381.858 828.168C384.691 829.467 387.749 829.547 390.684 828.174C395.771 825.795 397.958 819.764 395.61 814.743C393.231 809.655 387.2 807.468 382.113 809.847C377.156 812.165 374.808 818.192 377.096 823.083C375.437 821.236 373.947 819.071 372.493 816.81C372.153 816.254 371.443 815.076 371.134 814.585C369.679 812.324 367.877 811.02 365.889 810.678L365.633 810.64L370.981 808.138C375.024 806.247 376.2 803.154 376.738 801.074C377.215 798.864 377.11 797.959 376.469 796.59L374.639 792.677C370.674 784.198 361.629 781.513 352.498 785.783L326.41 797.984L335.225 816.833L344.421 812.532L349.637 823.684L340.375 828.016L349.221 846.93ZM348.026 817.522L345.464 812.044L373.313 799.02C373.313 799.02 375.926 797.639 375.455 800.879C374.996 803.638 373.267 805.718 370.462 807.03L348.026 817.522Z" fill="#4A4A4A"/>
<path d="M428.047 810.064L419.201 791.151L407.136 796.794L401.92 785.641L421.812 776.338L412.997 757.489L372.169 776.583L380.984 795.432L400.876 786.129L406.092 797.282L394.026 802.924L402.872 821.838L428.047 810.064Z" fill="#4A4A4A"/>
<path d="M462.228 795.032C473.446 789.786 478.968 776.95 476.135 764.604C475.672 762.594 475.014 760.677 474.099 758.72C473.214 756.829 472.165 755.094 470.95 753.516C463.325 743.331 449.872 739.21 438.589 744.487C427.437 749.703 421.88 762.635 424.713 774.981C425.176 776.99 425.834 778.908 426.749 780.864C433.246 794.756 449.25 801.102 462.228 795.032ZM435.603 783.48C432.538 784.914 428.9 783.594 427.467 780.529C426.003 777.398 427.322 773.761 430.387 772.327L465.28 756.009C468.28 754.606 471.917 755.925 473.382 759.056C474.815 762.121 473.496 765.758 470.496 767.161L435.603 783.48Z" fill="#4A4A4A"/>
<path d="M504.808 751.115L492.872 756.697L487.656 745.544L497.766 740.816L524.349 765.026L540.785 757.34L531.939 738.426L520.004 744.008L514.788 732.855L526.723 727.273L517.908 708.425L492.733 720.198L501.548 739.047L513.744 733.343L518.96 744.496L508.786 749.254L482.298 725.079L465.602 732.887L474.417 751.736L486.613 746.032L491.829 757.185L479.633 762.888L488.478 781.802L513.653 770.028L504.808 751.115Z" fill="#4A4A4A"/>
<path d="M233.809 333.471C233.809 333.471 252.166 324.965 243.473 306.378L237.891 294.442C229.137 275.724 210.933 284.556 210.933 284.556L185.105 296.635L193.92 315.483L202.073 311.671L207.289 322.823L199.136 326.636L207.982 345.55L233.809 333.471ZM231.552 297.884C231.813 297.762 237.031 295.322 239.532 300.67L239.776 301.191C242.277 306.539 236.964 308.945 236.768 309.036L208.332 322.335L203.116 311.183L231.552 297.884Z" fill="#4A4A4A"/>
<path d="M278.477 313.535C289.694 308.289 295.217 295.452 292.383 283.106C291.921 281.097 291.262 279.179 290.347 277.223C289.463 275.331 288.413 273.597 287.198 272.019C279.573 261.834 266.121 257.713 254.838 262.989C243.685 268.205 238.128 281.137 240.961 293.483C241.424 295.493 242.083 297.41 242.998 299.367C249.494 313.259 265.498 319.605 278.477 313.535ZM251.851 301.982C248.786 303.416 245.149 302.097 243.715 299.031C242.251 295.901 243.57 292.263 246.636 290.83L281.528 274.511C284.528 273.108 288.166 274.428 289.63 277.558C291.063 280.623 289.744 284.261 286.744 285.664L251.851 301.982Z" fill="#4A4A4A"/>
<path d="M342.945 282.431L334.1 263.517L308.99 275.26L303.774 264.107L315.84 258.465L307.025 239.616L281.85 251.39L290.665 270.238L302.731 264.595L307.947 275.748L295.881 281.391L304.726 300.305L342.945 282.431Z" fill="#4A4A4A"/>
<path d="M384.439 263.025L375.593 244.111L350.484 255.854L345.268 244.702L357.334 239.059L348.519 220.21L323.344 231.984L332.159 250.833L344.224 245.19L349.44 256.342L337.375 261.985L346.22 280.899L384.439 263.025Z" fill="#4A4A4A"/>
<path d="M412.152 250.064L403.306 231.151L392.871 236.031L404.025 217.222L408.526 215.118L399.711 196.269L374.014 208.287L382.829 227.135L386.742 225.305L381.782 233.904L374.676 230.948L380.938 228.02L372.123 209.171L354.774 217.285L363.589 236.133L373.437 231.528L388.762 237.952L378.914 242.558L387.76 261.472L412.152 250.064Z" fill="#4A4A4A"/>
<path d="M230.741 398.935L221.896 380.021L211.656 384.81L209.521 380.245L231.305 370.057C235.348 368.166 236.524 365.072 237.062 362.993C237.539 360.783 237.129 359.226 236.488 357.856L234.963 354.595C230.998 346.117 221.952 343.432 212.822 347.702L187.386 359.598L196.201 378.446L205.397 374.146L210.613 385.298L201.352 389.629L210.197 408.543L230.741 398.935ZM209.003 379.136L206.44 373.658L233.637 360.938C233.637 360.938 236.25 359.557 235.779 362.798C235.32 365.556 233.591 367.637 230.786 368.948L209.003 379.136Z" fill="#4A4A4A"/>
<path d="M257.241 342.825L267.226 351.429L256.726 356.34L257.241 342.825ZM260.932 361.765L256.432 363.87L256.692 357.628L268.171 352.259L272.737 356.244L262.823 360.881L271.669 379.794L292.278 370.156L283.433 351.242L273.976 355.665L246.64 331.886L245.792 332.282L242.475 370.397L236.54 373.173L245.385 392.087L269.778 380.679L260.932 361.765Z" fill="#4A4A4A"/>
<path d="M295.541 368.63L320.651 356.887L311.805 337.973L297 344.897L294.865 340.331L309.018 333.713C309.766 333.442 310.866 333.246 312.019 333.501C313.685 333.835 315.234 334.938 316.471 336.903C316.811 337.46 317.521 338.638 317.83 339.129C320.774 343.555 323.596 347.72 328.178 349.869C331.011 351.167 334.069 351.247 337.004 349.875C342.091 347.495 344.278 341.465 341.93 336.443C339.551 331.356 333.52 329.169 328.433 331.548C323.476 333.866 321.128 339.892 323.416 344.784C321.757 342.936 320.268 340.771 318.813 338.511C318.473 337.954 317.763 336.776 317.454 336.285C315.999 334.024 314.197 332.721 312.209 332.379L311.953 332.34L317.301 329.839C321.344 327.948 322.52 324.854 323.058 322.775C323.535 320.565 323.43 319.66 322.789 318.29L320.959 314.377C316.994 305.898 307.949 303.214 298.818 307.484L272.73 319.684L281.545 338.533L290.741 334.232L295.957 345.385L286.695 349.716L295.541 368.63ZM294.346 339.223L291.784 333.744L319.633 320.72C319.633 320.72 322.246 319.339 321.775 322.58C321.316 325.338 319.587 327.419 316.782 328.73L294.346 339.223Z" fill="#4A4A4A"/>
<path d="M374.367 331.765L365.521 312.851L353.456 318.494L348.24 307.341L368.132 298.038L359.317 279.19L318.489 298.284L327.304 317.132L347.196 307.829L352.412 318.982L340.346 324.625L349.192 343.539L374.367 331.765Z" fill="#4A4A4A"/>
<path d="M408.548 316.733C419.766 311.487 425.288 298.65 422.455 286.304C421.992 284.295 421.334 282.377 420.419 280.421C419.534 278.529 418.485 276.795 417.27 275.217C409.645 265.032 396.193 260.911 384.909 266.187C373.757 271.403 368.2 284.335 371.033 296.681C371.496 298.691 372.154 300.608 373.069 302.565C379.566 316.457 395.57 322.803 408.548 316.733ZM381.923 305.18C378.858 306.614 375.22 305.295 373.787 302.229C372.323 299.099 373.642 295.461 376.707 294.028L411.6 277.709C414.6 276.306 418.238 277.626 419.702 280.756C421.135 283.821 419.816 287.459 416.816 288.862L381.923 305.18Z" fill="#4A4A4A"/>
<path d="M451.128 272.815L439.192 278.397L433.977 267.244L444.086 262.517L470.669 286.727L487.105 279.04L478.259 260.126L466.324 265.708L461.108 254.556L473.043 248.974L464.228 230.125L439.053 241.899L447.868 260.747L460.064 255.044L465.28 266.196L455.106 270.955L428.618 246.779L411.922 254.588L420.737 273.436L432.933 267.732L438.149 278.885L425.953 284.589L434.798 303.503L459.973 291.729L451.128 272.815Z" fill="#4A4A4A"/>
<path d="M362.594 608.844C362.594 608.844 380.952 600.338 372.259 581.751L366.677 569.815C357.923 551.097 339.718 559.929 339.718 559.929L313.891 572.008L322.706 590.856L330.858 587.044L336.074 598.196L327.922 602.009L336.767 620.923L362.594 608.844ZM360.338 573.257C360.599 573.135 365.816 570.695 368.317 576.043L368.561 576.565C371.063 581.913 365.749 584.318 365.554 584.409L337.118 597.708L331.902 586.556L360.338 573.257Z" fill="#4A4A4A"/>
<path d="M407.262 588.908C418.48 583.662 424.002 570.825 421.169 558.479C420.706 556.47 420.048 554.552 419.133 552.596C418.248 550.704 417.198 548.97 415.984 547.392C408.359 537.207 394.906 533.086 383.623 538.362C372.471 543.578 366.914 556.51 369.747 568.857C370.21 570.866 370.868 572.783 371.783 574.74C378.28 588.632 394.283 594.978 407.262 588.908ZM380.637 577.355C377.571 578.789 373.934 577.47 372.5 574.404C371.036 571.274 372.356 567.636 375.421 566.203L410.314 549.884C413.314 548.481 416.951 549.801 418.415 552.931C419.849 555.996 418.53 559.634 415.529 561.037L380.637 577.355Z" fill="#4A4A4A"/>
<path d="M471.731 557.804L462.885 538.89L437.776 550.633L432.56 539.48L444.625 533.838L435.81 514.989L410.635 526.763L419.451 545.611L431.516 539.968L436.732 551.121L424.666 556.764L433.512 575.678L471.731 557.804Z" fill="#4A4A4A"/>
<path d="M513.224 538.398L504.379 519.484L479.269 531.227L474.053 520.075L486.119 514.432L477.304 495.583L452.129 507.357L460.944 526.206L473.01 520.563L478.226 531.715L466.16 537.358L475.005 556.272L513.224 538.398Z" fill="#4A4A4A"/>
<path d="M540.937 525.437L532.092 506.524L521.657 511.404L532.811 492.595L537.311 490.491L528.496 471.642L502.799 483.66L511.614 502.508L515.528 500.678L510.567 509.277L503.462 506.321L509.723 503.393L500.908 484.544L483.56 492.658L492.375 511.506L502.223 506.901L517.548 513.325L507.699 517.931L516.545 536.845L540.937 525.437Z" fill="#4A4A4A"/>
<path d="M359.527 674.308L350.681 655.394L340.442 660.183L338.307 655.618L360.09 645.43C364.134 643.539 365.31 640.445 365.848 638.366C366.324 636.156 365.914 634.599 365.273 633.229L363.748 629.968C359.783 621.49 350.738 618.805 341.607 623.075L316.171 634.971L324.986 653.819L334.182 649.519L339.398 660.671L330.137 665.003L338.983 683.916L359.527 674.308ZM337.788 654.509L335.226 649.031L362.423 636.311C362.423 636.311 365.036 634.93 364.564 638.171C364.105 640.929 362.376 643.01 359.572 644.321L337.788 654.509Z" fill="#4A4A4A"/>
<path d="M386.026 618.198L396.012 626.802L385.511 631.713L386.026 618.198ZM389.717 637.138L385.217 639.243L385.477 633.001L396.956 627.632L401.522 631.617L391.609 636.254L400.454 655.167L421.064 645.529L412.218 626.615L402.761 631.038L375.426 607.259L374.578 607.656L371.26 645.77L365.325 648.546L374.171 667.46L398.563 656.052L389.717 637.138Z" fill="#4A4A4A"/>
<path d="M424.326 644.003L449.436 632.26L440.591 613.346L425.786 620.27L423.65 615.705L437.803 609.086C438.551 608.815 439.651 608.619 440.804 608.874C442.47 609.208 444.02 610.311 445.257 612.276C445.597 612.833 446.307 614.011 446.616 614.502C449.56 618.928 452.382 623.093 456.964 625.242C459.797 626.54 462.854 626.62 465.789 625.248C470.877 622.868 473.064 616.838 470.715 611.816C468.336 606.729 462.306 604.542 457.218 606.921C452.262 609.239 449.913 615.265 452.201 620.157C450.542 618.309 449.053 616.145 447.598 613.884C447.259 613.327 446.549 612.149 446.239 611.658C444.785 609.397 442.983 608.094 440.995 607.752L440.738 607.713L446.086 605.212C450.13 603.321 451.306 600.227 451.844 598.148C452.32 595.938 452.215 595.033 451.575 593.663L449.744 589.75C445.779 581.272 436.734 578.587 427.603 582.857L401.515 595.058L410.33 613.906L419.526 609.605L424.742 620.758L415.481 625.089L424.326 644.003ZM423.132 614.596L420.57 609.117L448.419 596.093C448.419 596.093 451.032 594.712 450.56 597.953C450.101 600.711 448.372 602.792 445.568 604.103L423.132 614.596Z" fill="#4A4A4A"/>
<path d="M503.152 607.138L494.307 588.224L482.241 593.867L477.025 582.714L496.917 573.411L488.102 554.563L447.275 573.657L456.09 592.505L475.982 583.202L481.198 594.355L469.132 599.998L477.977 618.912L503.152 607.138Z" fill="#4A4A4A"/>
<path d="M537.334 592.106C548.552 586.86 554.074 574.023 551.241 561.677C550.778 559.668 550.12 557.75 549.204 555.794C548.32 553.902 547.27 552.168 546.055 550.59C538.431 540.405 524.978 536.284 513.695 541.56C502.542 546.776 496.985 559.708 499.819 572.055C500.281 574.064 500.94 575.981 501.855 577.938C508.352 591.83 524.355 598.176 537.334 592.106ZM510.709 580.553C507.643 581.987 504.006 580.668 502.572 577.602C501.108 574.472 502.427 570.834 505.493 569.401L540.385 553.082C543.386 551.679 547.023 552.999 548.487 556.129C549.921 559.194 548.601 562.832 545.601 564.235L510.709 580.553Z" fill="#4A4A4A"/>
<path d="M579.913 548.188L567.978 553.77L562.762 542.617L572.871 537.89L599.455 562.1L615.89 554.413L607.044 535.499L595.109 541.081L589.893 529.929L601.829 524.347L593.014 505.498L567.839 517.272L576.654 536.12L588.85 530.417L594.066 541.569L583.891 546.328L557.404 522.152L540.707 529.961L549.522 548.809L561.718 543.105L566.934 554.258L554.738 559.962L563.584 578.876L588.759 567.102L579.913 548.188Z" fill="#4A4A4A"/>
<path d="M491.38 884.217C491.38 884.217 509.737 875.711 501.044 857.124L495.462 845.188C486.708 826.47 468.503 835.302 468.503 835.302L442.676 847.381L451.491 866.229L459.644 862.417L464.86 873.569L456.707 877.382L465.553 896.296L491.38 884.217ZM489.123 848.63C489.384 848.508 494.602 846.068 497.103 851.416L497.347 851.938C499.848 857.286 494.535 859.691 494.339 859.783L465.903 873.081L460.687 861.929L489.123 848.63Z" fill="#4A4A4A"/>
<path d="M536.047 864.281C547.265 859.035 552.787 846.198 549.954 833.852C549.492 831.843 548.833 829.925 547.918 827.969C547.034 826.077 545.984 824.343 544.769 822.765C537.144 812.58 523.692 808.459 512.409 813.735C501.256 818.951 495.699 831.883 498.532 844.23C498.995 846.239 499.653 848.156 500.568 850.113C507.065 864.005 523.069 870.351 536.047 864.281ZM509.422 852.729C506.357 854.162 502.719 852.843 501.286 849.777C499.822 846.647 501.141 843.009 504.206 841.576L539.099 825.257C542.099 823.854 545.737 825.174 547.201 828.304C548.634 831.369 547.315 835.007 544.315 836.41L509.422 852.729Z" fill="#4A4A4A"/>
<path d="M600.516 833.177L591.671 814.263L566.561 826.006L561.345 814.853L573.411 809.211L564.596 790.362L539.421 802.136L548.236 820.984L560.302 815.341L565.517 826.494L553.452 832.137L562.297 851.051L600.516 833.177Z" fill="#4A4A4A"/>
<path d="M642.01 813.771L633.164 794.857L608.055 806.6L602.839 795.448L614.904 789.805L606.089 770.956L580.915 782.73L589.73 801.579L601.795 795.936L607.011 807.089L594.945 812.731L603.791 831.645L642.01 813.771Z" fill="#4A4A4A"/>
<path d="M669.723 800.81L660.877 781.897L650.442 786.777L661.596 767.968L666.096 765.864L657.281 747.015L631.585 759.033L640.4 777.881L644.313 776.051L639.353 784.65L632.247 781.694L638.508 778.766L629.693 759.917L612.345 768.031L621.16 786.879L631.008 782.274L646.333 788.698L636.485 793.304L645.33 812.218L669.723 800.81Z" fill="#4A4A4A"/>
<path d="M488.312 949.681L479.467 930.767L469.227 935.556L467.092 930.991L488.875 920.803C492.919 918.912 494.095 915.818 494.633 913.739C495.11 911.529 494.699 909.972 494.059 908.602L492.534 905.341C488.569 896.863 479.523 894.178 470.393 898.448L444.957 910.344L453.772 929.192L462.968 924.892L468.184 936.044L458.922 940.375L467.768 959.289L488.312 949.681ZM466.574 929.882L464.011 924.404L491.208 911.684C491.208 911.684 493.821 910.303 493.35 913.544C492.891 916.302 491.161 918.383 488.357 919.694L466.574 929.882Z" fill="#4A4A4A"/>
<path d="M514.812 893.571L524.797 902.175L514.297 907.086L514.812 893.571ZM518.503 912.511L514.003 914.616L514.263 908.374L525.742 903.005L530.308 906.99L520.394 911.627L529.24 930.54L549.849 920.902L541.004 901.988L531.547 906.411L504.211 882.632L503.363 883.029L500.046 921.143L494.111 923.919L502.956 942.833L527.348 931.425L518.503 912.511Z" fill="#4A4A4A"/>
<path d="M553.112 919.376L578.221 907.633L569.376 888.719L554.571 895.643L552.436 891.078L566.589 884.459C567.337 884.188 568.437 883.992 569.59 884.247C571.256 884.581 572.805 885.685 574.042 887.65C574.382 888.206 575.092 889.384 575.401 889.875C578.345 894.301 581.167 898.466 585.749 900.615C588.582 901.913 591.64 901.993 594.575 900.621C599.662 898.241 601.849 892.211 599.501 887.189C597.121 882.102 591.091 879.915 586.004 882.294C581.047 884.612 578.699 890.638 580.987 895.53C579.328 893.682 577.838 891.518 576.384 889.257C576.044 888.7 575.334 887.522 575.025 887.031C573.57 884.77 571.768 883.467 569.78 883.125L569.523 883.086L574.872 880.585C578.915 878.694 580.091 875.6 580.629 873.521C581.106 871.311 581 870.406 580.36 869.036L578.53 865.123C574.565 856.645 565.519 853.96 556.389 858.23L530.301 870.431L539.116 889.279L548.312 884.978L553.527 896.131L544.266 900.462L553.112 919.376ZM551.917 889.969L549.355 884.49L577.204 871.466C577.204 871.466 579.817 870.085 579.346 873.326C578.887 876.084 577.157 878.165 574.353 879.476L551.917 889.969Z" fill="#4A4A4A"/>
<path d="M631.938 882.511L623.092 863.597L611.027 869.24L605.811 858.087L625.703 848.784L616.888 829.936L576.06 849.03L584.875 867.879L604.767 858.576L609.983 869.728L597.917 875.371L606.763 894.285L631.938 882.511Z" fill="#4A4A4A"/>
<path d="M666.119 867.479C677.337 862.233 682.859 849.397 680.026 837.05C679.563 835.041 678.905 833.123 677.99 831.167C677.105 829.275 676.056 827.541 674.841 825.963C667.216 815.778 653.763 811.657 642.48 816.933C631.328 822.149 625.771 835.081 628.604 847.428C629.067 849.437 629.725 851.354 630.64 853.311C637.137 867.203 653.14 873.549 666.119 867.479ZM639.494 855.927C636.429 857.36 632.791 856.041 631.358 852.975C629.894 849.845 631.213 846.208 634.278 844.774L669.171 828.455C672.171 827.052 675.808 828.372 677.272 831.502C678.706 834.568 677.387 838.205 674.387 839.608L639.494 855.927Z" fill="#4A4A4A"/>
<path d="M708.698 823.561L696.763 829.143L691.547 817.99L701.656 813.263L728.24 837.473L744.675 829.786L735.83 810.872L723.895 816.454L718.679 805.302L730.614 799.72L721.799 780.871L696.624 792.645L705.439 811.494L717.635 805.79L722.851 816.942L712.677 821.701L686.189 797.525L669.493 805.334L678.308 824.182L690.504 818.478L695.72 829.631L683.524 835.335L692.369 854.249L717.544 842.475L708.698 823.561Z" fill="#4A4A4A"/>
<path d="M843.513 216.128C843.513 216.128 861.87 207.623 853.177 189.035L847.595 177.1C838.841 158.382 820.636 167.214 820.636 167.214L794.809 179.292L803.624 198.141L811.777 194.328L816.993 205.481L808.84 209.293L817.686 228.207L843.513 216.128ZM841.256 180.541C841.517 180.419 846.735 177.979 849.236 183.327L849.48 183.849C851.981 189.197 846.668 191.602 846.472 191.694L818.036 204.993L812.82 193.84L841.256 180.541Z" fill="#4A4A4A"/>
<path d="M888.18 196.192C899.398 190.946 904.92 178.11 902.087 165.763C901.624 163.754 900.966 161.837 900.051 159.88C899.166 157.989 898.117 156.254 896.902 154.676C889.277 144.491 875.825 140.37 864.542 145.647C853.389 150.863 847.832 163.795 850.665 176.141C851.128 178.15 851.786 180.068 852.701 182.024C859.198 195.916 875.202 202.262 888.18 196.192ZM861.555 184.64C858.49 186.073 854.852 184.754 853.419 181.689C851.955 178.558 853.274 174.921 856.339 173.487L891.232 157.169C894.232 155.766 897.87 157.085 899.334 160.216C900.767 163.281 899.448 166.918 896.448 168.321L861.555 184.64Z" fill="#4A4A4A"/>
<path d="M952.649 165.088L943.804 146.174L918.694 157.917L913.478 146.765L925.544 141.122L916.729 122.273L891.554 134.047L900.369 152.896L912.435 147.253L917.65 158.405L905.585 164.048L914.43 182.962L952.649 165.088Z" fill="#4A4A4A"/>
<path d="M994.143 145.682L985.297 126.769L960.188 138.512L954.972 127.359L967.037 121.716L958.222 102.868L933.047 114.642L941.863 133.49L953.928 127.847L959.144 139L947.078 144.643L955.924 163.556L994.143 145.682Z" fill="#4A4A4A"/>
<path d="M1021.86 132.722L1013.01 113.808L1002.57 118.688L1013.73 99.8797L1018.23 97.7751L1009.41 78.9265L983.718 90.9442L992.533 109.793L996.446 107.963L991.486 116.562L984.38 113.606L990.641 110.677L981.826 91.8288L964.478 99.9423L973.293 118.791L983.141 114.185L998.466 120.61L988.618 125.216L997.463 144.129L1021.86 132.722Z" fill="#4A4A4A"/>
<path d="M840.445 281.593L831.6 262.679L821.36 267.468L819.225 262.902L841.008 252.715C845.052 250.824 846.228 247.73 846.766 245.65C847.243 243.44 846.832 241.883 846.192 240.514L844.667 237.253C840.702 228.774 831.656 226.089 822.526 230.36L797.09 242.255L805.905 261.104L815.101 256.803L820.317 267.956L811.055 272.287L819.901 291.201L840.445 281.593ZM818.706 261.793L816.144 256.315L843.341 243.596C843.341 243.596 845.954 242.215 845.483 245.456C845.024 248.214 843.294 250.294 840.49 251.606L818.706 261.793Z" fill="#4A4A4A"/>
<path d="M866.945 225.483L876.93 234.087L866.43 238.998L866.945 225.483ZM870.636 244.423L866.136 246.527L866.396 240.285L877.875 234.917L882.441 238.902L872.527 243.538L881.373 262.452L901.982 252.813L893.137 233.899L883.68 238.322L856.344 214.543L855.496 214.94L852.179 253.055L846.244 255.83L855.089 274.744L879.481 263.336L870.636 244.423Z" fill="#4A4A4A"/>
<path d="M905.245 251.287L930.354 239.544L921.509 220.63L906.704 227.554L904.569 222.989L918.722 216.37C919.469 216.1 920.57 215.903 921.723 216.159C923.389 216.492 924.938 217.596 926.175 219.561C926.515 220.117 927.225 221.296 927.534 221.787C930.478 226.212 933.3 230.377 937.882 232.526C940.715 233.824 943.773 233.905 946.708 232.532C951.795 230.153 953.982 224.122 951.633 219.1C949.254 214.013 943.224 211.826 938.137 214.205C933.18 216.523 930.832 222.55 933.119 227.441C931.461 225.594 929.971 223.429 928.517 221.168C928.177 220.612 927.467 219.434 927.158 218.942C925.703 216.682 923.901 215.378 921.913 215.036L921.656 214.997L927.004 212.496C931.048 210.605 932.224 207.512 932.762 205.432C933.239 203.222 933.133 202.317 932.493 200.948L930.663 197.035C926.698 188.556 917.652 185.871 908.522 190.141L882.434 202.342L891.249 221.191L900.445 216.89L905.66 228.042L896.399 232.374L905.245 251.287ZM904.05 221.88L901.488 216.402L929.337 203.377C929.337 203.377 931.95 201.996 931.479 205.237C931.02 207.995 929.29 210.076 926.486 211.388L904.05 221.88Z" fill="#4A4A4A"/>
<path d="M984.071 214.422L975.225 195.509L963.159 201.151L957.944 189.999L977.836 180.696L969.021 161.847L928.193 180.941L937.008 199.79L956.9 190.487L962.116 201.639L950.05 207.282L958.896 226.196L984.071 214.422Z" fill="#4A4A4A"/>
<path d="M1018.25 199.39C1029.47 194.144 1034.99 181.308 1032.16 168.961C1031.7 166.952 1031.04 165.035 1030.12 163.078C1029.24 161.187 1028.19 159.452 1026.97 157.874C1019.35 147.689 1005.9 143.568 994.613 148.845C983.461 154.061 977.904 166.993 980.737 179.339C981.2 181.348 981.858 183.266 982.773 185.222C989.27 199.114 1005.27 205.46 1018.25 199.39ZM991.627 187.838C988.562 189.271 984.924 187.952 983.491 184.887C982.026 181.756 983.346 178.119 986.411 176.685L1021.3 160.367C1024.3 158.964 1027.94 160.283 1029.41 163.414C1030.84 166.479 1029.52 170.116 1026.52 171.519L991.627 187.838Z" fill="#4A4A4A"/>
<path d="M1060.83 155.473L1048.9 161.054L1043.68 149.902L1053.79 145.174L1080.37 169.384L1096.81 161.698L1087.96 142.784L1076.03 148.366L1070.81 137.213L1082.75 131.631L1073.93 112.783L1048.76 124.556L1057.57 143.405L1069.77 137.701L1074.98 148.854L1064.81 153.612L1038.32 129.437L1021.63 137.245L1030.44 156.094L1042.64 150.39L1047.85 161.542L1035.66 167.246L1044.5 186.16L1069.68 174.386L1060.83 155.473Z" fill="#4A4A4A"/>
<path d="M918.618 13.202C918.618 13.202 936.975 4.69619 928.282 -13.8915L922.701 -25.8267C913.947 -44.5449 895.742 -35.713 895.742 -35.713L869.915 -23.6343L878.73 -4.78569L886.882 -8.59842L892.098 2.55418L883.946 6.36691L892.791 25.2807L918.618 13.202ZM916.362 -22.3852C916.623 -22.5072 921.84 -24.9474 924.341 -19.5994L924.585 -19.0776C927.086 -13.7296 921.773 -11.3241 921.577 -11.2326L893.142 2.06616L887.926 -9.08645L916.362 -22.3852Z" fill="#4A4A4A"/>
<path d="M963.286 -6.73422C974.504 -11.9805 980.026 -24.8167 977.193 -37.1631C976.73 -39.1722 976.072 -41.0899 975.156 -43.0465C974.272 -44.9379 973.222 -46.6725 972.007 -48.2505C964.383 -58.4354 950.93 -62.5565 939.647 -57.2797C928.494 -52.0639 922.938 -39.132 925.771 -26.7856C926.233 -24.7764 926.892 -22.8588 927.807 -20.9022C934.304 -7.01033 950.307 -0.664361 963.286 -6.73422ZM936.661 -18.2867C933.595 -16.8531 929.958 -18.1724 928.524 -21.2377C927.06 -24.3682 928.379 -28.0057 931.445 -29.4393L966.337 -45.7577C969.338 -47.1608 972.975 -45.8415 974.439 -42.711C975.873 -39.6456 974.553 -36.0082 971.553 -34.6051L936.661 -18.2867Z" fill="#4A4A4A"/>
<path d="M1027.75 -37.8385L1018.91 -56.7523L993.799 -45.0091L988.584 -56.1617L1000.65 -61.8046L991.834 -80.6531L966.659 -68.8794L975.474 -50.0308L987.54 -55.6737L992.756 -44.5211L980.69 -38.8782L989.536 -19.9645L1027.75 -37.8385Z" fill="#4A4A4A"/>
<path d="M1069.25 -57.2441L1060.4 -76.1579L1035.29 -64.4147L1030.08 -75.5673L1042.14 -81.2101L1033.33 -100.059L1008.15 -88.285L1016.97 -69.4364L1029.03 -75.0793L1034.25 -63.9267L1022.18 -58.2838L1031.03 -39.37L1069.25 -57.2441Z" fill="#4A4A4A"/>
<path d="M1096.96 -70.2048L1088.12 -89.1185L1077.68 -84.2382L1088.83 -103.047L1093.33 -105.151L1084.52 -124L1058.82 -111.982L1067.64 -93.1337L1071.55 -94.9638L1066.59 -86.3647L1059.49 -89.321L1065.75 -92.2492L1056.93 -111.098L1039.58 -102.984L1048.4 -84.1357L1058.25 -88.7415L1073.57 -82.3166L1063.72 -77.7109L1072.57 -58.7971L1096.96 -70.2048Z" fill="#4A4A4A"/>
<path d="M915.551 78.6661L906.705 59.7523L896.466 64.5411L894.33 59.9757L916.114 49.7881C920.158 47.897 921.334 44.8034 921.871 42.7238C922.348 40.5138 921.938 38.9569 921.297 37.5873L919.772 34.3263C915.807 25.8477 906.762 23.1628 897.631 27.433L872.195 39.3287L881.01 58.1773L890.206 53.8765L895.422 65.0291L886.161 69.3604L895.006 88.2742L915.551 78.6661ZM893.812 58.867L891.25 53.3885L918.446 40.6693C918.446 40.6693 921.06 39.2882 920.588 42.5291C920.129 45.2872 918.4 47.3678 915.595 48.6794L893.812 58.867Z" fill="#4A4A4A"/>
<path d="M942.05 22.5562L952.035 31.1603L941.535 36.0711L942.05 22.5562ZM945.741 41.496L941.241 43.6007L941.501 37.3587L952.98 31.9903L957.546 35.9752L947.633 40.6115L956.478 59.5253L977.088 49.8867L968.242 30.9729L958.785 35.3957L931.45 11.6169L930.602 12.0134L927.284 50.1281L921.349 52.9037L930.195 71.8175L954.587 60.4098L945.741 41.496Z" fill="#4A4A4A"/>
<path d="M980.35 48.3609L1005.46 36.6177L996.614 17.7039L981.809 24.6278L979.674 20.0624L993.827 13.4435C994.575 13.1732 995.675 12.9766 996.828 13.2323C998.494 13.5658 1000.04 14.6693 1001.28 16.6344C1001.62 17.1908 1002.33 18.369 1002.64 18.8603C1005.58 23.2858 1008.41 27.4505 1012.99 29.5998C1015.82 30.898 1018.88 30.9781 1021.81 29.6055C1026.9 27.2264 1029.09 21.1959 1026.74 16.174C1024.36 11.0868 1018.33 8.89956 1013.24 11.2787C1008.29 13.5968 1005.94 19.6231 1008.22 24.5146C1006.57 22.6673 1005.08 20.5024 1003.62 18.2418C1003.28 17.6853 1002.57 16.5072 1002.26 16.0159C1000.81 13.7553 999.007 12.4519 997.019 12.1099L996.762 12.071L1002.11 9.56981C1006.15 7.6787 1007.33 4.58509 1007.87 2.5055C1008.34 0.295468 1008.24 -0.609179 1007.6 -1.9788L1005.77 -5.892C1001.8 -14.3706 992.758 -17.0555 983.627 -12.7853L957.539 -0.584564L966.354 18.264L975.55 13.9632L980.766 25.1159L971.505 29.4471L980.35 48.3609ZM979.156 18.9537L976.594 13.4752L1004.44 0.450943C1004.44 0.450943 1007.06 -0.930074 1006.58 2.31083C1006.13 5.06891 1004.4 7.14948 1001.59 8.46106L979.156 18.9537Z" fill="#4A4A4A"/>
<path d="M1059.18 11.4959L1050.33 -7.41792L1038.26 -1.77508L1033.05 -12.9277L1052.94 -22.2307L1044.13 -41.0793L1003.3 -21.9852L1012.11 -3.1366L1032.01 -12.4397L1037.22 -1.28705L1025.16 4.35579L1034 23.2696L1059.18 11.4959Z" fill="#4A4A4A"/>
<path d="M1093.36 -3.5362C1104.58 -8.78251 1110.1 -21.6186 1107.26 -33.965C1106.8 -35.9742 1106.14 -37.8919 1105.23 -39.8485C1104.34 -41.7398 1103.29 -43.4745 1102.08 -45.0524C1094.45 -55.2374 1081 -59.3585 1069.72 -54.0816C1058.57 -48.8658 1053.01 -35.934 1055.84 -23.5876C1056.31 -21.5784 1056.96 -19.6608 1057.88 -17.7042C1064.38 -3.81231 1080.38 2.53366 1093.36 -3.5362ZM1066.73 -15.0886C1063.67 -13.6551 1060.03 -14.9743 1058.6 -18.0397C1057.13 -21.1702 1058.45 -24.8077 1061.52 -26.2412L1096.41 -42.5597C1099.41 -43.9628 1103.05 -42.6435 1104.51 -39.513C1105.94 -36.4476 1104.63 -32.8102 1101.63 -31.4071L1066.73 -15.0886Z" fill="#4A4A4A"/>
<path d="M1135.94 -47.4539L1124 -41.8721L1118.79 -53.0247L1128.89 -57.7525L1155.48 -33.5424L1171.91 -41.2289L1163.07 -60.1427L1151.13 -54.5608L1145.92 -65.7135L1157.85 -71.2953L1149.04 -90.1438L1123.86 -78.3701L1132.68 -59.5216L1144.87 -65.2254L1150.09 -54.0728L1139.92 -49.3145L1113.43 -73.4899L1096.73 -65.6814L1105.55 -46.8328L1117.74 -52.5367L1122.96 -41.3841L1110.76 -35.6802L1119.61 -16.7664L1144.78 -28.5401L1135.94 -47.4539Z" fill="#4A4A4A"/>
<path d="M972.298 491.502C972.298 491.502 990.655 482.996 981.962 464.408L976.381 452.473C967.627 433.755 949.422 442.587 949.422 442.587L923.595 454.665L932.41 473.514L940.562 469.701L945.778 480.854L937.626 484.667L946.471 503.58L972.298 491.502ZM970.042 455.914C970.303 455.792 975.52 453.352 978.021 458.7L978.265 459.222C980.766 464.57 975.453 466.975 975.257 467.067L946.822 480.366L941.606 469.213L970.042 455.914Z" fill="#4A4A4A"/>
<path d="M1016.97 471.565C1028.18 466.319 1033.71 453.483 1030.87 441.136C1030.41 439.127 1029.75 437.21 1028.84 435.253C1027.95 433.362 1026.9 431.627 1025.69 430.049C1018.06 419.864 1004.61 415.743 993.327 421.02C982.174 426.236 976.618 439.168 979.451 451.514C979.913 453.523 980.572 455.441 981.487 457.397C987.984 471.289 1003.99 477.635 1016.97 471.565ZM990.341 460.013C987.275 461.447 983.638 460.127 982.204 457.062C980.74 453.931 982.059 450.294 985.125 448.86L1020.02 432.542C1023.02 431.139 1026.65 432.458 1028.12 435.589C1029.55 438.654 1028.23 442.291 1025.23 443.694L990.341 460.013Z" fill="#4A4A4A"/>
<path d="M1081.43 440.461L1072.59 421.547L1047.48 433.29L1042.26 422.138L1054.33 416.495L1045.51 397.646L1020.34 409.42L1029.15 428.269L1041.22 422.626L1046.44 433.779L1034.37 439.421L1043.22 458.335L1081.43 440.461Z" fill="#4A4A4A"/>
<path d="M1122.93 421.055L1114.08 402.142L1088.97 413.885L1083.76 402.732L1095.82 397.089L1087.01 378.241L1061.83 390.015L1070.65 408.863L1082.71 403.22L1087.93 414.373L1075.86 420.016L1084.71 438.93L1122.93 421.055Z" fill="#4A4A4A"/>
<path d="M1150.64 408.095L1141.8 389.181L1131.36 394.061L1142.51 375.253L1147.01 373.148L1138.2 354.3L1112.5 366.317L1121.32 385.166L1125.23 383.336L1120.27 391.935L1113.17 388.979L1119.43 386.05L1110.61 367.202L1093.26 375.315L1102.08 394.164L1111.93 389.558L1127.25 395.983L1117.4 400.589L1126.25 419.503L1150.64 408.095Z" fill="#4A4A4A"/>
<path d="M969.231 556.966L960.385 538.052L950.146 542.841L948.01 538.275L969.794 528.088C973.838 526.197 975.014 523.103 975.551 521.023C976.028 518.813 975.618 517.257 974.977 515.887L973.452 512.626C969.487 504.147 960.442 501.462 951.311 505.733L925.875 517.628L934.69 536.477L943.886 532.176L949.102 543.329L939.841 547.66L948.686 566.574L969.231 556.966ZM947.492 537.167L944.93 531.688L972.126 518.969C972.126 518.969 974.739 517.588 974.268 520.829C973.809 523.587 972.08 525.667 969.275 526.979L947.492 537.167Z" fill="#4A4A4A"/>
<path d="M995.73 500.856L1005.72 509.46L995.215 514.371L995.73 500.856ZM999.421 519.796L994.921 521.9L995.181 515.658L1006.66 510.29L1011.23 514.275L1001.31 518.911L1010.16 537.825L1030.77 528.186L1021.92 509.272L1012.47 513.695L985.13 489.916L984.282 490.313L980.964 528.428L975.029 531.203L983.875 550.117L1008.27 538.709L999.421 519.796Z" fill="#4A4A4A"/>
<path d="M1034.03 526.66L1059.14 514.917L1050.29 496.003L1035.49 502.927L1033.35 498.362L1047.51 491.743C1048.25 491.473 1049.36 491.276 1050.51 491.532C1052.17 491.865 1053.72 492.969 1054.96 494.934C1055.3 495.49 1056.01 496.669 1056.32 497.16C1059.26 501.585 1062.09 505.75 1066.67 507.899C1069.5 509.198 1072.56 509.278 1075.49 507.905C1080.58 505.526 1082.77 499.495 1080.42 494.474C1078.04 489.386 1072.01 487.199 1066.92 489.578C1061.97 491.896 1059.62 497.923 1061.9 502.814C1060.25 500.967 1058.76 498.802 1057.3 496.541C1056.96 495.985 1056.25 494.807 1055.94 494.315C1054.49 492.055 1052.69 490.751 1050.7 490.409L1050.44 490.371L1055.79 487.869C1059.83 485.978 1061.01 482.885 1061.55 480.805C1062.02 478.595 1061.92 477.69 1061.28 476.321L1059.45 472.408C1055.48 463.929 1046.44 461.244 1037.31 465.514L1011.22 477.715L1020.03 496.564L1029.23 492.263L1034.45 503.415L1025.18 507.747L1034.03 526.66ZM1032.84 497.253L1030.27 491.775L1058.12 478.75C1058.12 478.75 1060.74 477.37 1060.26 480.61C1059.81 483.368 1058.08 485.449 1055.27 486.761L1032.84 497.253Z" fill="#4A4A4A"/>
<path d="M1112.86 489.795L1104.01 470.882L1091.94 476.524L1086.73 465.372L1106.62 456.069L1097.81 437.22L1056.98 456.314L1065.79 475.163L1085.69 465.86L1090.9 477.013L1078.84 482.655L1087.68 501.569L1112.86 489.795Z" fill="#4A4A4A"/>
<path d="M1147.04 474.763C1158.26 469.517 1163.78 456.681 1160.94 444.335C1160.48 442.325 1159.82 440.408 1158.91 438.451C1158.02 436.56 1156.97 434.825 1155.76 433.247C1148.13 423.062 1134.68 418.941 1123.4 424.218C1112.25 429.434 1106.69 442.366 1109.52 454.712C1109.99 456.721 1110.64 458.639 1111.56 460.595C1118.06 474.487 1134.06 480.833 1147.04 474.763ZM1120.41 463.211C1117.35 464.645 1113.71 463.325 1112.28 460.26C1110.81 457.129 1112.13 453.492 1115.2 452.058L1150.09 435.74C1153.09 434.337 1156.73 435.656 1158.19 438.787C1159.62 441.852 1158.31 445.489 1155.31 446.892L1120.41 463.211Z" fill="#4A4A4A"/>
<path d="M1189.62 430.846L1177.68 436.427L1172.47 425.275L1182.57 420.547L1209.16 444.757L1225.59 437.071L1216.75 418.157L1204.81 423.739L1199.6 412.586L1211.53 407.004L1202.72 388.156L1177.54 399.929L1186.36 418.778L1198.55 413.074L1203.77 424.227L1193.6 428.985L1167.11 404.81L1150.41 412.618L1159.23 431.467L1171.42 425.763L1176.64 436.916L1164.44 442.619L1173.29 461.533L1198.46 449.759L1189.62 430.846Z" fill="#4A4A4A"/>
</g>
<defs>
<clipPath id="clip0">
<rect width="1540" height="877" fill="white"/>
</clipPath>
</defs>
</svg>
