<svg width="104" height="137" viewBox="0 0 104 137" fill="none" xmlns="http://www.w3.org/2000/svg">
<path fill-rule="evenodd" clip-rule="evenodd" d="M53 96C78.4051 96 99 75.4051 99 50C99 24.5949 78.4051 4 53 4C27.5949 4 7 24.5949 7 50C7 75.4051 27.5949 96 53 96ZM53 100C80.6142 100 103 77.6142 103 50C103 22.3858 80.6142 0 53 0C25.3858 0 3 22.3858 3 50C3 77.6142 25.3858 100 53 100Z" fill="black"/>
<path d="M83 50L38 75.9808V24.0192L83 50Z" fill="black"/>
<path d="M11.88 137V126.56H6.22804V124.04H18.252C20.484 124.04 21.672 122.888 22.356 122.06C23.04 121.16 23.184 120.368 23.184 119.612V117.812C23.184 113.132 19.656 110 14.616 110H0.576039V120.404H5.65204V126.56H0.540039V137H11.88ZM6.22804 123.428V120.404H21.24C21.24 120.404 22.716 120.332 21.816 121.7C21.024 122.852 19.8 123.428 18.252 123.428H6.22804Z" fill="black"/>
<path d="M48.9665 137V126.56H35.1065V120.404H41.7665V110H27.8705V120.404H34.5305V126.56H27.8705V137H48.9665Z" fill="black"/>
<path d="M69.4581 117.2L72.1581 123.212H66.3621L69.4581 117.2ZM67.1181 126.56H64.6341L66.0741 123.788H72.4101L73.6341 126.56H68.1621V137H79.5381V126.56H74.3181L66.9741 110H66.5061L56.9301 126.56H53.6541V137H67.1181V126.56Z" fill="black"/>
<path d="M97.6379 137V126.56H91.8779L100.914 120.404H103.398V110H89.214V120.404H91.3739L87.3059 123.248L84.714 120.404H88.1699V110H78.5939V120.404H84.0299L89.6099 126.56H84.174V137H97.6379Z" fill="black"/>
</svg>
