<svg width="1540" height="877" viewBox="0 0 1540 877" fill="none" xmlns="http://www.w3.org/2000/svg">
<path fill-rule="evenodd" clip-rule="evenodd" d="M772.074 480.532C810.852 480.532 842.287 449.097 842.287 410.319C842.287 371.541 810.852 340.106 772.074 340.106C733.296 340.106 701.86 371.541 701.86 410.319C701.86 449.097 733.296 480.532 772.074 480.532ZM772.074 486.638C814.224 486.638 848.393 452.469 848.393 410.319C848.393 368.169 814.224 334 772.074 334C729.924 334 695.755 368.169 695.755 410.319C695.755 452.469 729.924 486.638 772.074 486.638Z" fill="white"/>
<path d="M817.865 410.319L749.178 449.975V370.662L817.865 410.319Z" fill="white"/>
<path d="M709.309 543.114V527.178H700.682V523.332H719.035C722.442 523.332 724.255 521.573 725.299 520.31C726.343 518.936 726.563 517.727 726.563 516.573V513.826C726.563 506.682 721.178 501.901 713.485 501.901H692.055V517.782H699.803V527.178H692V543.114H709.309ZM700.682 522.398V517.782H723.596C723.596 517.782 725.849 517.672 724.475 519.76C723.266 521.518 721.398 522.398 719.035 522.398H700.682Z" fill="white"/>
<path d="M765.917 543.114V527.178H744.761V517.782H754.927V501.901H733.717V517.782H743.882V527.178H733.717V543.114H765.917Z" fill="white"/>
<path d="M797.195 512.891L801.316 522.068H792.469L797.195 512.891ZM793.623 527.178H789.832L792.03 522.947H801.701L803.569 527.178H795.217V543.114H812.581V527.178H804.613L793.403 501.901H792.689L778.073 527.178H773.072V543.114H793.623V527.178Z" fill="white"/>
<path d="M840.208 543.114V527.178H831.416L845.208 517.782H849V501.901H827.35V517.782H830.647L824.438 522.123L820.481 517.782H825.756V501.901H811.14V517.782H819.437L827.954 527.178H819.657V543.114H840.208Z" fill="white"/>
</svg>
